<?xml version="1.0" encoding="UTF-8"?><svg id="Layer_1" xmlns="http://www.w3.org/2000/svg" width="21.21" height="16.44" viewBox="0 0 21.21 16.44"><defs><style>.cls-1{fill:#fff;}</style></defs><path class="cls-1" d="M.59,10.54H11.37l.45,.26c0,.11-.01,.22-.01,.33s0,.22,.01,.33l-.86,.5c-.28,.16-.38,.52-.22,.81l1.18,2.04c.16,.28,.52,.38,.81,.22l.86-.5c.18,.13,.37,.24,.57,.33v.99c0,.33,.26,.59,.59,.59h2.36c.33,0,.59-.26,.59-.59v-.99c.2-.09,.39-.21,.57-.33l.86,.5c.28,.16,.64,.07,.81-.22l1.18-2.04c.16-.28,.07-.64-.22-.81l-.86-.5c0-.11,.01-.22,.01-.33s0-.22-.01-.33l.86-.5c.28-.16,.38-.52,.22-.81l-1.18-2.04c-.16-.28-.52-.38-.81-.22l-.86,.5c-.18-.13-.37-.24-.57-.33v-.99c0-.33-.26-.59-.59-.59h-1.77V.59c0-.33-.26-.59-.59-.59H.59C.26,0,0,.26,0,.59V9.95c0,.33,.26,.59,.59,.59h0Zm14.36-2.19c.24-.08,.39-.31,.39-.56v-.8h1.18v.8c0,.25,.16,.47,.39,.56,.34,.12,.66,.3,.93,.54,.19,.16,.46,.19,.68,.06l.69-.4,.59,1.02-.69,.4c-.22,.12-.33,.37-.29,.62,.03,.19,.05,.36,.05,.54s-.02,.35-.05,.54c-.05,.25,.07,.49,.29,.62l.69,.4-.59,1.02-.69-.4c-.22-.13-.49-.1-.68,.06-.27,.23-.59,.42-.93,.54-.24,.08-.39,.31-.39,.56v.8h-1.18v-.8c0-.25-.16-.47-.39-.56-.34-.12-.66-.3-.93-.54-.19-.16-.46-.19-.68-.06l-.69,.4-.59-1.02,.69-.4c.22-.12,.33-.37,.29-.62-.03-.19-.05-.36-.05-.54s.02-.35,.05-.54c.05-.25-.07-.49-.29-.62l-.69-.4,.59-1.02,.69,.4c.22,.12,.49,.1,.68-.06,.27-.23,.59-.42,.93-.54h0ZM10.62,1.09h3.54v3.54h-3.54V1.09Zm0,4.72h3.54v1.58c-.2,.09-.39,.21-.57,.33l-.86-.5c-.28-.16-.64-.07-.81,.22l-1.1,1.91h-.2v-3.54ZM5.9,1.09h3.54v3.54h-3.54V1.09Zm0,4.72h3.54v3.54h-3.54v-3.54ZM1.18,1.09h3.54v3.54H1.18V1.09Zm0,4.72h3.54v3.54H1.18v-3.54Z"/><path class="cls-1" d="M15.94,12.9c.98,0,1.77-.79,1.77-1.77s-.79-1.77-1.77-1.77-1.77,.79-1.77,1.77,.79,1.77,1.77,1.77Zm0-2.36c.33,0,.59,.26,.59,.59s-.26,.59-.59,.59-.59-.26-.59-.59,.26-.59,.59-.59Z"/></svg>