<svg id="Layer_1" data-name="Layer 1" xmlns="http://www.w3.org/2000/svg" width="62.82" height="62.83" viewBox="0 0 62.82 62.83"><defs><style>.cls-1{fill:#a3a3a3;}.cls-2{fill:#4f2170;}</style></defs><title>Login_Landing_Sprite</title><path class="cls-1" d="M31.4,56.29A25,25,0,0,1,6.45,31.35,25,25,0,0,1,49.09,13.72a24.74,24.74,0,0,1,7.28,17.64A25,25,0,0,1,31.43,56.29Zm.05-48.07a23.12,23.12,0,1,0,.05,46.23,23.15,23.15,0,0,0,23-23.1,23.14,23.14,0,0,0-23-23.13V8Z"/><path class="cls-1" d="M31.42,6.58A24.76,24.76,0,1,1,6.65,31.35,24.76,24.76,0,0,1,31.42,6.58Zm23.3,24.76A23.32,23.32,0,1,0,31.55,54.65,23.34,23.34,0,0,0,54.72,31.34Z"/><path class="cls-1" d="M61.71,62.83a1.1,1.1,0,0,1-.25,0q-3.66-.7-7.32-1.49a.93.93,0,0,1-.63-.4,1,1,0,0,1-.09-.71.88.88,0,0,1,.89-.72,1,1,0,0,1,.29,0l4.39.88.12,0,0,0-.65-.63-7.51-7.5-.08-.07c-.11-.1-.25-.21-.25-.38v-.13a1.62,1.62,0,0,1,.14-.93.72.72,0,0,1,.61-.33,1.06,1.06,0,0,1,.61.22,2.3,2.3,0,0,1,.33.3l.62.62L60.32,59l.08.1-.87-4.44a1.2,1.2,0,0,1,.15-.94.85.85,0,0,1,.59-.32h.14q.75,0,.93.93l1.07,5.59c.1.53.19,1,.29,1.57a1.18,1.18,0,0,1-.22,1A1,1,0,0,1,61.71,62.83Z"/><path class="cls-1" d="M59.52,60.54c-.33-.31-.66-.61-1-.92L51,52.12c-.1-.1-.27-.21-.27-.32a1.8,1.8,0,0,1,.1-.94c.21-.32.6-.3.93-.06a4.75,4.75,0,0,1,.4.38l8,8a2.08,2.08,0,0,1,.28.48l.22-.16c-.2-1-.4-2.07-.61-3.1-.11-.58-.23-1.16-.34-1.74s.11-1,.57-1,.76.28.85.76c.35,1.86.71,3.73,1.07,5.59.1.52.2,1.05.29,1.57a.83.83,0,0,1-1,1.07c-2.44-.47-4.88-1-7.32-1.48a.66.66,0,0,1-.56-.87.71.71,0,0,1,.94-.54L59,60.6c.15,0,.32,0,.47.08Z"/><path class="cls-1" d="M11.47,12.34a1,1,0,0,1-.72-.34L8.07,9.32,2.43,3.68S3,6.74,3.27,7.85,3,9.17,2.59,9.25l-.2,0c-.27,0-.76-.13-.93-1C1,5.87.55,3.51.11,1.14A1,1,0,0,1,.28.3.86.86,0,0,1,1,0l.27,0,7.1,1.35a1.15,1.15,0,0,1,.73.31c.13.18.44.72.25,1a1.27,1.27,0,0,1-.92.52c-1.17-.18-2.25-.4-3.29-.61L3.75,2.35l7.89,7.89c.15.14.29.29.43.44a1,1,0,0,1-.6,1.66Z"/><path class="cls-1" d="M2.14,3.28l.93,4.61c.14.69,0,1.07-.52,1.16s-.77-.19-.9-.85Q1,4.66.31,1.1C.19.47.55.12,1.19.24c2.37.44,4.73.89,7.1,1.35.21,0,.5.08.61.23s.34.63.24.78A1,1,0,0,1,8.33,3C6.88,2.79,5.44,2.48,4,2.19l-.78-.14c.21.24.34.39.47.52l7.81,7.81.43.44a.74.74,0,1,1-1,1l-3-3L2.27,3.24Z"/><path class="cls-1" d="M.89,62.67a.85.85,0,0,1-.68-.29A1.11,1.11,0,0,1,0,61.45c.29-1.52.6-3,.9-4.54l.27-1.34c.1-.49.2-1,.31-1.45a.89.89,0,0,1,.86-.8l.26,0a.89.89,0,0,1,.68,1.18c-.24,1.18-.48,2.36-.71,3.55,0,0-.16.84-.18.91l8-8,.1-.11a.81.81,0,0,1,.39-.31,3,3,0,0,1,.62-.1.5.5,0,0,1,.39.14,1.61,1.61,0,0,1,.24,1.06.87.87,0,0,1-.36.51l-.12.11q-4,4-7.94,7.93l-.15.13,3.19-.62c.42-.08.84-.16,1.25-.26a1.63,1.63,0,0,1,.36-.05.85.85,0,0,1,.88.72.84.84,0,0,1-.09.7,1.07,1.07,0,0,1-.74.43l-1.63.31c-1.91.37-3.81.74-5.71,1.09A1.06,1.06,0,0,1,.89,62.67Z"/><path class="cls-1" d="M3.27,60.6l3-.6c.61-.11,1.21-.21,1.81-.36s.87,0,1,.52-.19.8-.68.89c-2.45.47-4.89,1-7.34,1.4-.62.12-1-.29-.86-1,.37-2,.78-3.92,1.17-5.89l.3-1.43c.11-.47.4-.74.88-.62s.63.45.53.94c-.29,1.42-.56,2.84-.85,4.26,0,.22-.07.43-.13.78.25-.23.41-.37.57-.53l7.89-7.89c.13-.13.24-.32.4-.37s.69-.15.8,0a1.34,1.34,0,0,1,.2.91c0,.18-.27.34-.42.5L3.63,60.06a3,3,0,0,1-.51.33Z"/><path class="cls-1" d="M51.27,12.22a.48.48,0,0,1-.4-.14A1.55,1.55,0,0,1,50.63,11a.8.8,0,0,1,.33-.49l.11-.1,8-8a.75.75,0,0,1,.14-.12l-.93.18c-1.17.23-2.34.45-3.51.7a2.23,2.23,0,0,1-.34,0,.86.86,0,0,1-.89-.71.87.87,0,0,1,.08-.7,1.11,1.11,0,0,1,.75-.44l1.9-.36,5.44-1,.24,0a.87.87,0,0,1,.68.3,1.08,1.08,0,0,1,.18.92c-.25,1.34-.52,2.67-.79,4l-.26,1.29c-.15.72-.28,1.38-.43,2a.89.89,0,0,1-.86.81,1.27,1.27,0,0,1-.26,0,.89.89,0,0,1-.68-1.17c.24-1.19.48-2.38.71-3.57,0,0,.16-.82.17-.89s-8,8-8,8l-.1.11a.86.86,0,0,1-.39.31A2.89,2.89,0,0,1,51.27,12.22Z"/><path class="cls-1" d="M59.56,2.07c-1.61.32-3.23.62-4.85,1-.51.11-.88,0-1-.52s.19-.8.68-.89L61.73.22c.62-.12,1,.29.86,1-.33,1.77-.7,3.53-1.05,5.29-.14.68-.27,1.36-.42,2-.11.47-.4.75-.88.63a.7.7,0,0,1-.54-.94c.3-1.42.57-2.84.85-4.26.05-.22.07-.44.13-.78l-.56.53-7.89,7.89c-.13.13-.25.33-.4.36s-.7.15-.81,0a1.37,1.37,0,0,1-.19-.91c0-.16.24-.31.39-.46q4-4,8-8a5.6,5.6,0,0,1,.49-.36Z"/><path class="cls-2" d="M17.64,40.65A.95.95,0,0,1,17,39L27.24,29a1,1,0,0,1,1.34,0l4.69,4.69,9.22-9.34a.93.93,0,0,1,1.34,0,1,1,0,0,1,.29.67,1,1,0,0,1-.28.67L34,35.67a.85.85,0,0,1-.59.29l-.15,0a.91.91,0,0,1-.61-.27L27.9,31l-9.59,9.41A.94.94,0,0,1,17.64,40.65Z"/><path class="cls-2" d="M17.64,40.45a.76.76,0,0,1-.54-.22.75.75,0,0,1,0-1.06L27.38,29.09a.75.75,0,0,1,1.05,0l4.84,4.83,9.36-9.48A.75.75,0,0,1,43.7,25.5l-9.89,10a.61.61,0,0,1-.54.22.75.75,0,0,1-.53-.22L27.9,30.69l-9.73,9.55A.77.77,0,0,1,17.64,40.45Z"/><polygon class="cls-2" points="39.9 23.32 46.62 21.47 44.86 28.22 39.9 23.32"/><polygon class="cls-2" points="44.76 27.83 46.34 21.76 40.28 23.42 44.76 27.83"/></svg>