<svg id="Layer_1" data-name="Layer 1" xmlns="http://www.w3.org/2000/svg" width="38.29" height="41.11" viewBox="0 0 38.29 41.11"><defs><style>.cls-1{fill:#00b259;}</style></defs><title>Login_Landing_Sprite</title><path d="M5.1,33.9l-.6-1.35H1.22L.63,33.9H.17l2.47-5.49H3.1L5.56,33.9Zm-.76-1.74L2.86,28.82,1.39,32.16Z"/><path d="M6.71,30v.69A1.55,1.55,0,0,1,8.09,30a1.61,1.61,0,0,1,1.74,1.71V33.9H9.45V31.67a1.25,1.25,0,0,0-1.38-1.34,1.35,1.35,0,0,0-1.35,1.41V33.9H6.33V30Z"/><path d="M14.79,30V33.9H14.4v-.82a1.8,1.8,0,0,1-1.58.88,2,2,0,0,1,0-4,1.75,1.75,0,0,1,1.58.89V30ZM11.24,32a1.55,1.55,0,0,0,1.58,1.63,1.62,1.62,0,0,0,0-3.24A1.54,1.54,0,0,0,11.24,32Z"/><path d="M16.44,28.41V33.9h-.39V28.41Z"/><path d="M21.12,30l-2.36,5.48h-.4l.71-1.66L17.52,30h.41l.9,2.29.46,1.12.44-1.13,1-2.28Z"/><path d="M23,28.86V30h1.31v.32H23v2.36c0,.52.11.89.71.89a1.38,1.38,0,0,0,.6-.16l.13.32a1.65,1.65,0,0,1-.73.19c-.82,0-1.09-.48-1.09-1.24V30.35h-.82V30h.82V28.9Z"/><path d="M25.91,28.77a.31.31,0,0,1-.61,0A.31.31,0,1,1,25.91,28.77ZM25.41,30V33.9h.38V30Z"/><path d="M30.29,33.36a2,2,0,0,1-1.41.58,2,2,0,1,1,0-3.95,2.06,2.06,0,0,1,1.41.58l-.25.24a1.68,1.68,0,0,0-1.16-.46,1.62,1.62,0,1,0,0,3.23A1.67,1.67,0,0,0,30,33.1Z"/><path d="M34,30.73a1.65,1.65,0,0,0-1.2-.4c-.61,0-1.19.22-1.17.71s.69.62,1.17.7c.69.12,1.64.24,1.6,1.14S33.44,34,32.76,34a2,2,0,0,1-1.69-.77l.28-.25a1.72,1.72,0,0,0,1.42.65c.47,0,1.18-.12,1.21-.73s-.63-.67-1.27-.77-1.49-.27-1.5-1S32,30,32.75,30a2,2,0,0,1,1.44.51Z"/><path d="M5.54,38.29a3,3,0,0,1-.64,1.87l.69.68-.26.27-.69-.66a2.81,2.81,0,0,1-1.87.64,2.81,2.81,0,0,1,0-5.61A2.63,2.63,0,0,1,5.54,38.29Zm-5.12,0a2.25,2.25,0,0,0,2.35,2.45,2.41,2.41,0,0,0,0-4.82A2.29,2.29,0,0,0,.42,38.24Z"/><path d="M9.85,41v-.7a1.51,1.51,0,0,1-1.38.76,1.61,1.61,0,0,1-1.75-1.7V37.15H7.1v2.23a1.24,1.24,0,0,0,1.38,1.34,1.35,1.35,0,0,0,1.36-1.41V37.15h.38V41Z"/><path d="M11.49,39.1a2,2,0,1,1,2,2A1.91,1.91,0,0,1,11.49,39.1Zm3.56,0a1.6,1.6,0,1,0-3.19,0,1.6,1.6,0,1,0,3.19,0Z"/><path d="M17.55,36v1.17h1.32v.32H17.55v2.36c0,.52.11.89.71.89a1.52,1.52,0,0,0,.6-.15l.13.31a1.63,1.63,0,0,1-.73.2c-.82,0-1.09-.49-1.09-1.25V37.48h-.82v-.32h.82V36Z"/><path d="M20.7,35.9a.31.31,0,0,1-.62,0A.31.31,0,0,1,20.7,35.9Zm-.51,1.24V41h.38V37.14Z"/><path d="M21.88,39.1a2,2,0,0,1,2-2,1.8,1.8,0,0,1,1.91,2.18H22.28a1.52,1.52,0,0,0,1.57,1.43,1.81,1.81,0,0,0,1.4-.59l.27.22a2.12,2.12,0,0,1-1.67.75A1.9,1.9,0,0,1,21.88,39.1Zm3.54-.16a1.42,1.42,0,0,0-1.57-1.49,1.54,1.54,0,0,0-1.57,1.49Z"/><path d="M27.57,37.16v.69A1.55,1.55,0,0,1,29,37.09,1.62,1.62,0,0,1,30.7,38.8V41h-.39V38.81a1.24,1.24,0,0,0-1.38-1.34,1.33,1.33,0,0,0-1.35,1.41V41h-.39V37.16Z"/><path d="M32.85,36v1.17h1.32v.32H32.85v2.36c0,.52.11.89.72.89a1.43,1.43,0,0,0,.59-.15l.14.31a1.71,1.71,0,0,1-.73.2c-.82,0-1.09-.49-1.09-1.25V37.48h-.82v-.32h.82V36Z"/><path class="cls-1" d="M38.29,11.68A12.11,12.11,0,0,0,16.85,4.4a1.54,1.54,0,0,0,2.38,2A9,9,0,1,1,26.5,21.12a1.55,1.55,0,0,0,.05,3.09h.06a12.18,12.18,0,0,0,3.49-.64L31.52,26a1.56,1.56,0,0,0,1.33.75,1.61,1.61,0,0,0,.79-.21,1.54,1.54,0,0,0,.54-2.12l-1.3-2.19A12.12,12.12,0,0,0,38.29,11.68Z"/><path class="cls-1" d="M33.23,15.37a7.92,7.92,0,0,0,.63-3.08,7.8,7.8,0,0,0-7.79-7.8A7.72,7.72,0,0,0,23,5.13,10.67,10.67,0,0,1,33.23,15.37Z"/><path class="cls-1" d="M24.26,24.47,13.48,3.17a1.53,1.53,0,0,0-2.07-.68,1.49,1.49,0,0,0-.69.69s-.05.09-.08.14L.34,24.66a1.46,1.46,0,0,0,.08,1.39,1.44,1.44,0,0,0,1.22.68H18.05a1.44,1.44,0,0,0,0-2.88H3.93L12,7.1l9.5,18.77a1.54,1.54,0,1,0,2.75-1.4Z"/></svg>