<svg id="Layer_1" data-name="Layer 1" xmlns="http://www.w3.org/2000/svg" width="79.94" height="57.52" viewBox="0 0 79.94 57.52"><defs><style>.cls-1{fill:#a3a3a3;}.cls-2{fill:none;stroke:#a3a3a3;stroke-miterlimit:10;stroke-width:1.5px;}</style></defs><title>Login_Landing_Sprite</title><polygon class="cls-1" points="49.27 17.14 8.95 17.14 8.95 9.52 43.18 9.52 49.27 17.14"/><path class="cls-2" d="M79.09,49.77V.75H.75v56H79.18S79,49.85,79.09,49.77Z"/><path class="cls-1" d="M19.7,31H8.2V19.52H19.7Zm-10-1.5h8.5V21H9.7Z"/><path class="cls-1" d="M19.7,42.52H8.2V31H19.7ZM9.7,41h8.5v-8.5H9.7Z"/><path class="cls-1" d="M19.7,54H8.2V42.52H19.7Zm-10-1.5h8.5V44H9.7Z"/><path class="cls-1" d="M29.88,31H18.38V19.52h11.5Zm-10-1.5h8.5V21h-8.5Z"/><path class="cls-1" d="M29.88,42.52H18.38V31h11.5Zm-10-1.5h8.5v-8.5h-8.5Z"/><path class="cls-1" d="M29.88,54H18.38V42.52h11.5Zm-10-1.5h8.5V44h-8.5Z"/><path class="cls-1" d="M40.06,31H28.56V19.52h11.5Zm-10-1.5h8.5V21h-8.5Z"/><path class="cls-1" d="M40.06,42.52H28.56V31h11.5Zm-10-1.5h8.5v-8.5h-8.5Z"/><path class="cls-1" d="M40.06,54H28.56V42.52h11.5Zm-10-1.5h8.5V44h-8.5Z"/><path class="cls-1" d="M50.25,31H38.75V19.52h11.5Zm-10-1.5h8.5V21h-8.5Z"/><path class="cls-1" d="M50.25,42.52H38.75V31h11.5Zm-10-1.5h8.5v-8.5h-8.5Z"/><path class="cls-1" d="M50.25,54H38.75V42.52h11.5Zm-10-1.5h8.5V44h-8.5Z"/><path class="cls-1" d="M60.43,31H48.93V19.52h11.5Zm-10-1.5h8.5V21h-8.5Z"/><path class="cls-1" d="M60.43,42.52H48.93V31h11.5Zm-10-1.5h8.5v-8.5h-8.5Z"/><path class="cls-1" d="M60.43,54H48.93V42.52h11.5Zm-10-1.5h8.5V44h-8.5Z"/><path class="cls-1" d="M70.61,31H59.11V19.52h11.5Zm-10-1.5h8.5V21h-8.5Z"/><path class="cls-1" d="M70.61,42.52H59.11V31h11.5Zm-10-1.5h8.5v-8.5h-8.5Z"/><path class="cls-1" d="M70.61,54H59.11V42.52h11.5Zm-10-1.5h8.5V44h-8.5Z"/><polyline class="cls-2" points="49.3 9.52 8.95 9.52 8.95 17.14 69.86 17.14 69.86 13.33"/><circle class="cls-2" cx="53.41" cy="9.97" r="1.99"/><circle class="cls-2" cx="61.34" cy="9.97" r="1.99"/><circle class="cls-2" cx="67.95" cy="9.97" r="1.99"/></svg>