<svg id="Layer_1" data-name="Layer 1" xmlns="http://www.w3.org/2000/svg" width="77.48" height="60.1" viewBox="0 0 77.48 60.1"><defs><style>.cls-1{fill:#a3a3a3;}.cls-2{fill:#4f2170;}</style></defs><title>Login_Landing_Sprite</title><path class="cls-1" d="M35,50.36V17.71a1.09,1.09,0,1,0-2.18,0V50.36a1.09,1.09,0,0,0,2.18,0Z"/><path class="cls-1" d="M52,5.44a26.57,26.57,0,0,0-6.31-.84,13.06,13.06,0,0,0-11.78,6.32A13.06,13.06,0,0,0,22.11,4.6c-4.54,0-8.91,1.51-12.78,2.85C6.28,8.51,3.4,9.5,1.09,9.5A1.09,1.09,0,0,0,0,10.6v44a1.09,1.09,0,0,0,1.09,1.09c2.68,0,5.73-1,9-2.17,3.7-1.28,7.89-2.73,12.06-2.73a11.13,11.13,0,0,1,8.61,3.52,1.09,1.09,0,1,0,1.61-1.48,13.32,13.32,0,0,0-10.22-4.23c-4.54,0-8.91,1.52-12.78,2.85a36.26,36.26,0,0,1-7.14,2V11.63a36.15,36.15,0,0,0,7.86-2.11c3.7-1.29,7.89-2.74,12.06-2.74,8.44,0,10.65,6.7,10.74,7a1.08,1.08,0,0,0,2.08,0c0-.07,2.25-7,10.74-7a24.12,24.12,0,0,1,5.46.71A15.83,15.83,0,0,1,52,5.44Z"/><path class="cls-1" d="M65.59,27.76V53.47a36.26,36.26,0,0,1-7.14-2c-3.87-1.33-8.24-2.85-12.78-2.85a13.32,13.32,0,0,0-10.22,4.23,1.09,1.09,0,1,0,1.61,1.48,11.13,11.13,0,0,1,8.61-3.52c4.17,0,8.36,1.45,12.06,2.73,3.23,1.12,6.28,2.17,9,2.17a1.09,1.09,0,0,0,1.09-1.09V27.52A16.87,16.87,0,0,1,65.59,27.76Z"/><path class="cls-1" d="M66.69,57.91c-2.31,0-5.19-1-8.24-2C54.58,54.52,50.21,53,45.67,53a13.38,13.38,0,0,0-9.88,3.88H32A13.38,13.38,0,0,0,22.11,53c-4.54,0-8.91,1.52-12.78,2.86-3,1-5.93,2-8.24,2a1.1,1.1,0,0,0,0,2.19c2.68,0,5.73-1.06,9-2.18,3.7-1.28,7.89-2.73,12.06-2.73a11.13,11.13,0,0,1,8.61,3.52,1.07,1.07,0,0,0,.8.36h4.74a1.07,1.07,0,0,0,.8-.36,11.13,11.13,0,0,1,8.61-3.52c4.17,0,8.36,1.45,12.06,2.73C61,59,64,60.1,66.69,60.1a1.1,1.1,0,0,0,0-2.19Z"/><path class="cls-2" d="M71.88,10.72l-3.2,3.12.76,4.41v.18c0,.23-.1.44-.36.44a.66.66,0,0,1-.35-.11l-4-2.08-4,2.08a.68.68,0,0,1-.35.11c-.26,0-.37-.21-.37-.44a1.09,1.09,0,0,1,0-.18l.76-4.41-3.21-3.12a.75.75,0,0,1-.22-.42c0-.27.27-.37.5-.41l4.42-.64,2-4c.08-.16.23-.36.43-.36s.35.2.43.36l2,4,4.42.64c.22,0,.5.14.5.41A.71.71,0,0,1,71.88,10.72Z"/><path class="cls-1" d="M64.86,25.23A12.62,12.62,0,1,1,77.48,12.61,12.63,12.63,0,0,1,64.86,25.23Zm0-23.72A11.1,11.1,0,1,0,76,12.61,11.1,11.1,0,0,0,64.86,1.51Z"/><path class="cls-1" d="M64.86,24.73A12.12,12.12,0,1,1,77,12.61,12.14,12.14,0,0,1,64.86,24.73ZM64.86,1a11.6,11.6,0,1,0,11.6,11.6A11.61,11.61,0,0,0,64.86,1Z"/><path class="cls-1" d="M20.49,23.72l-.19-.06a.76.76,0,0,1-.47-.7V5.69a.76.76,0,0,1,1.52,0V21.11l1.91-2a.8.8,0,0,1,.54-.23.79.79,0,0,1,.62.32l1,1.38V6.71a.76.76,0,0,1,1.51,0V23a.75.75,0,0,1-.52.72l-.08,0h-.16a.77.77,0,0,1-.61-.31l-1.84-2.56-2.59,2.64a.74.74,0,0,1-.54.23Z"/><path class="cls-1" d="M26.17,23.22a.23.23,0,0,1-.2-.11l-2.19-3-3,3.06a.24.24,0,0,1-.28.06.27.27,0,0,1-.16-.24V5.69a.26.26,0,1,1,.52,0V22.33l2.77-2.83a.25.25,0,0,1,.2-.07.23.23,0,0,1,.19.1l1.91,2.64V6.71a.26.26,0,1,1,.51,0V23a.27.27,0,0,1-.18.25Z"/></svg>