<?xml version="1.0" encoding="UTF-8"?><svg id="Layer_1" xmlns="http://www.w3.org/2000/svg" width="68.29" height="68.62" viewBox="0 0 68.29 68.62"><defs><style>.cls-1{fill:#a3a3a3;}</style></defs><path class="cls-1" d="M67.26,53.06h-13.52V2.79c0-1.54-1.22-2.79-2.72-2.79H2.72C1.22,0,0,1.25,0,2.79V63.24c0,2.97,2.66,5.38,5.93,5.38H59.98c4.58,0,8.31-3.88,8.31-8.65v-5.88c0-.57-.46-1.03-1.03-1.03ZM5.93,66.55c-2.13,0-3.86-1.49-3.86-3.31V2.79c0-.4,.29-.73,.65-.73H51.02c.36,0,.65,.33,.65,.73V54.09s0,0,0,0v5.88c0,2.63,1.14,4.99,2.93,6.58H5.93Zm60.29-6.58c0,3.63-2.8,6.58-6.23,6.58,0,0,0,0,0,0h-.02c-3.43-.01-6.22-2.96-6.22-6.58v-4.84h12.48s0,4.84,0,4.84Z"/><path class="cls-1" d="M10.27,10.36H43.47c.57,0,1.03-.46,1.03-1.03s-.46-1.03-1.03-1.03H10.27c-.57,0-1.03,.46-1.03,1.03s.46,1.03,1.03,1.03Z"/><path class="cls-1" d="M10.27,17.65h15.65c.57,0,1.03-.46,1.03-1.03s-.46-1.03-1.03-1.03H10.27c-.57,0-1.03,.46-1.03,1.03s.46,1.03,1.03,1.03Z"/><path class="cls-1" d="M46.13,24.87H7.61c-.57,0-1.03,.46-1.03,1.03V60.48c0,.57,.46,1.03,1.03,1.03H46.13c.57,0,1.03-.46,1.03-1.03V25.9c0-.57-.46-1.03-1.03-1.03ZM28.66,59.44H8.64v-5.7H28.66v5.7Zm0-7.77H8.64v-7.45H28.66v7.45Zm0-9.52H8.64v-7.45H28.66v7.45Zm0-9.52H8.64v-5.7H28.66v5.7Zm8.2,26.81h-6.13v-5.7h6.13v5.7Zm0-7.77h-6.13v-7.45h6.13v7.45Zm0-9.52h-6.13v-7.45h6.13v7.45Zm0-9.52h-6.13v-5.7h6.13v5.7Zm8.24,26.81h-6.17v-5.7h6.17v5.7Zm0-7.77h-6.17v-7.45h6.17v7.45Zm0-9.52h-6.17v-7.45h6.17v7.45Zm0-9.52h-6.17v-5.7h6.17v5.7Z"/><path class="cls-1" d="M66.22,59.97c0,3.63-2.8,6.58-6.23,6.58,0,0,0,0,0,0h-.02c-3.43-.01-6.22-2.96-6.22-6.58v-4.84h12.48s0,4.84,0,4.84Z"/></svg>