<svg id="Layer_1" data-name="Layer 1" xmlns="http://www.w3.org/2000/svg" width="63.51" height="62.93" viewBox="0 0 63.51 62.93"><defs><style>.cls-1{fill:none;stroke:#a3a3a3;stroke-miterlimit:10;stroke-width:1.5px;}.cls-2{fill:#a3a3a3;}</style></defs><title>Login_Landing_Sprite</title><polyline class="cls-1" points="0.75 0 0.75 62.18 63.51 62.18"/><polyline class="cls-1" points="49.77 13.48 53.78 15.9 53.99 3.35 43.06 9.44 47.07 11.86"/><polyline class="cls-1" points="11.31 33.11 26.64 17.73 43.12 21.86 48.82 12.32"/><path class="cls-1" d="M54.26,42.52V24.06l-4-2.44-4,6.72V55.66h8.07v-7"/><polygon class="cls-2" points="42.16 55.66 42.16 29.53 34.09 27.51 34.09 55.66 42.16 55.66"/><polygon class="cls-1" points="21.98 55.66 30.05 55.66 30.05 26.5 27.88 25.95 21.98 31.86 21.98 55.66"/><polygon class="cls-1" points="9.88 41.15 9.88 55.66 17.95 55.66 17.95 35.91 11.31 42.58 9.88 41.15"/></svg>