<svg id="Layer_1" data-name="Layer 1" xmlns="http://www.w3.org/2000/svg" viewBox="0 0 48.07 61.5"><defs><style>.cls-1{fill:#a2a2a2;}.cls-2,.cls-3{fill:none;stroke:#a2a2a2;}.cls-2{stroke-linecap:round;stroke-miterlimit:10;}.cls-3{stroke-linejoin:round;stroke-width:1.25px;}.cls-4{fill:#4f2170;}</style></defs><title>Login_Landing_Sprite</title><path class="cls-1" d="M0,61.5V0H33.14L48.07,14.92V61.5Zm1.57-1.57H46.5V16H32V1.57H1.57Zm32-45.46H45.4L33.6,2.67Z"/><line class="cls-2" x1="6.78" y1="49.75" x2="41.28" y2="49.75"/><line class="cls-2" x1="6.78" y1="54.75" x2="41.28" y2="54.75"/><rect class="cls-2" x="5.8" y="5.25" width="8" height="8"/><path class="cls-3" d="M23.28,31.27l7.91,7.91A11.18,11.18,0,0,1,15.38,23.36a11,11,0,0,1,13-2.06Z"/><path class="cls-4" d="M25.46,31l4.8-9.42a10.86,10.86,0,0,1,4.43,14.41,10.73,10.73,0,0,1-1.75,2.49Z"/></svg>