<svg id="Layer_1" data-name="Layer 1" xmlns="http://www.w3.org/2000/svg" width="30" height="30" viewBox="0 0 30 30"><defs><style>.cls-1{fill:#4f2170;}.cls-2{fill:#fff;}</style></defs><title>Mondelez_Eropanel_Sprite</title><circle class="cls-1" cx="15" cy="15" r="15"/><path class="cls-2" d="M22.48,8.35H16.85v1.83h1.86v1.25H16.85v1.22h1.84v1.23H16.85v1.24h1.84v1.23H16.85v1.23h1.84v1.23H16.85v1.84h5.63a.52.52,0,0,0,.52-.53V8.88A.52.52,0,0,0,22.48,8.35Zm-.71,10.46H19.31V17.58h2.46Zm0-2.46H19.31V15.12h2.46Zm0-2.47H19.31V12.65h2.46Zm0-2.46H19.31V10.19h2.46Z"/><path class="cls-2" d="M7,8.28V20.72l9.23,1.78V6.5Zm5.84,9.35-1.08-2a1.86,1.86,0,0,1-.12-.42h0a4,4,0,0,1-.14.43l-1.08,2H8.73l2-3.12L8.9,11.39h1.7l.9,1.87a2.73,2.73,0,0,1,.18.53h0c0-.12.1-.31.2-.55l1-1.85h1.56l-1.87,3.09,1.92,3.15Z"/></svg>