<svg id="Layer_1" data-name="Layer 1" xmlns="http://www.w3.org/2000/svg" viewBox="0 0 14.17 14"><defs><style>.cls-1{fill:#4f2170;}</style></defs><title>Mondelez_Eropanel_Sprite</title><path class="cls-1" d="M9,3.74A2,2,0,0,0,8,2a1.23,1.23,0,0,0-.94-2A1.24,1.24,0,0,0,5.82,1.23,1.22,1.22,0,0,0,6.13,2a1.94,1.94,0,0,0-1,1.7v1H9Z"/><path class="cls-1" d="M2.88,11.25a1.23,1.23,0,1,0-1.88,0A1.94,1.94,0,0,0,0,13v1H3.92V13A1.93,1.93,0,0,0,2.88,11.25Z"/><path class="cls-1" d="M13.13,11.25a1.23,1.23,0,1,0-1.88,0,1.92,1.92,0,0,0-1,1.7v1h3.92V13A2,2,0,0,0,13.13,11.25Z"/><polygon class="cls-1" points="7.42 5.92 6.75 5.92 6.75 8.12 4.42 10.44 4.89 10.91 7.08 8.72 9.27 10.91 9.74 10.44 7.42 8.12 7.42 5.92"/></svg>