<svg id="Layer_1" data-name="Layer 1" xmlns="http://www.w3.org/2000/svg" width="10.21" height="10.21" viewBox="0 0 10.21 10.21"><defs><style>.cls-1{fill:#404041;}</style></defs><title>Mondelez_Eropanel_Sprite</title><path class="cls-1" d="M10.21,9.43a.79.79,0,0,1-.78.78A.7.7,0,0,1,8.88,10L6.77,7.88a4.18,4.18,0,0,1-2.45.76A4.24,4.24,0,0,1,2.64,8.3a4.23,4.23,0,0,1-1.38-.92A4.45,4.45,0,0,1,.34,6,4.17,4.17,0,0,1,0,4.32,4.24,4.24,0,0,1,.34,2.64a4.57,4.57,0,0,1,.92-1.38A4.57,4.57,0,0,1,2.64.34,4.24,4.24,0,0,1,4.32,0,4.17,4.17,0,0,1,6,.34a4.57,4.57,0,0,1,1.38.92A4.23,4.23,0,0,1,8.3,2.64a4.24,4.24,0,0,1,.34,1.68,4.18,4.18,0,0,1-.76,2.45L10,8.88A.74.74,0,0,1,10.21,9.43Zm-4-3.17a2.62,2.62,0,0,0,.81-1.94,2.64,2.64,0,0,0-.81-1.94,2.62,2.62,0,0,0-1.94-.81,2.64,2.64,0,0,0-1.94.81,2.64,2.64,0,0,0-.81,1.94,2.62,2.62,0,0,0,.81,1.94,2.64,2.64,0,0,0,1.94.81A2.62,2.62,0,0,0,6.26,6.26Z"/></svg>