<svg xmlns="http://www.w3.org/2000/svg" id="Layer_1" width="10.29" height="10.29" viewBox="0 0 10.29 10.29"><defs fill="#ffffff"><style>.cls-1{fill:#ffffff;}</style></defs><path class="cls-1" d="M10.29,9.65c0,.35-.29,.64-.64,.64H.64c-.35,0-.64-.29-.64-.64V.64C0,.29,.29,0,.64,0H6.86c.36,0,.84,.2,1.1,.46l1.88,1.88c.25,.25,.46,.74,.46,1.1v6.22Zm-.86-.21V3.43c0-.13-.11-.4-.2-.49l-1.88-1.88c-.09-.09-.36-.2-.49-.2V3.64c0,.35-.29,.64-.64,.64H2.36c-.35,0-.64-.29-.64-.64V.86H.86V9.43h.86v-2.79c0-.36,.29-.64,.64-.64H7.93c.35,0,.64,.29,.64,.64v2.79h.86Zm-1.71,0v-2.57H2.57v2.57H7.72ZM6,1.07c0-.11-.1-.21-.21-.21h-1.29c-.11,0-.21,.1-.21,.21V3.22c0,.11,.1,.21,.21,.21h1.29c.11,0,.21-.1,.21-.21V1.07Z" fill="#ffffff"/></svg>