<svg id="Layer_1" data-name="Layer 1" xmlns="http://www.w3.org/2000/svg" width="12" height="12" viewBox="0 0 12 12"><defs><style>.cls-1{fill:#404041;}.cls-2{fill:#4f2170;}</style></defs><title>Mondelez_Eropanel_Sprite</title><path class="cls-1" d="M11.48,0H.52A.52.52,0,0,0,0,.52v11A.52.52,0,0,0,.52,12h11a.52.52,0,0,0,.52-.52V.52A.52.52,0,0,0,11.48,0ZM11,11H1V1H11V11Z"/><path class="cls-2" d="M4.82,8.83a.19.19,0,0,1-.16-.07L2.43,6.54a.25.25,0,0,1-.06-.16.25.25,0,0,1,.06-.17L3,5.61a.22.22,0,0,1,.32,0L4.82,7.06,8.64,3.24a.22.22,0,0,1,.32,0l.61.61a.24.24,0,0,1,0,.32L5,8.76A.21.21,0,0,1,4.82,8.83Z"/></svg>