<svg id="Layer_1" data-name="Layer 1" xmlns="http://www.w3.org/2000/svg" width="21.17" height="18.64" viewBox="0 0 21.17 18.64"><defs><style>.cls-1{fill:#e18719;}</style></defs><title>Mondelez_Eropanel_Sprite</title><path class="cls-1" d="M11.85,18.64A9.34,9.34,0,0,1,2.52,9.32.37.37,0,0,1,2.9,9a.36.36,0,0,1,.37.37A8.58,8.58,0,1,0,6.32,2.77a.38.38,0,1,1-.48-.58,9.32,9.32,0,1,1,6,16.45Z"/><path class="cls-1" d="M15.44,14.28H8.25a.8.8,0,0,1-.8-.8V8.84a.8.8,0,0,1,.8-.8h.52v-1A3.08,3.08,0,0,1,14,4.88a.34.34,0,0,1-.48.48A2.4,2.4,0,0,0,9.44,7.05V8.37a.34.34,0,0,1-.34.34H8.25a.13.13,0,0,0-.13.13v4.64a.12.12,0,0,0,.13.12h7.19a.12.12,0,0,0,.13-.12V8.84a.13.13,0,0,0-.13-.13h-.85a.34.34,0,1,1,0-.67h.85a.8.8,0,0,1,.8.8v4.64A.8.8,0,0,1,15.44,14.28Z"/><path class="cls-1" d="M14.59,8.71H9.1A.34.34,0,0,1,9.1,8h5.49a.34.34,0,1,1,0,.67Z"/><path class="cls-1" d="M.38,12a.38.38,0,0,1-.25-.09.38.38,0,0,1,0-.53L2.61,8.45a.38.38,0,0,1,.55,0L5.75,11a.37.37,0,0,1-.53.53L2.91,9.25.66,11.82A.37.37,0,0,1,.38,12Z"/></svg>