<svg id="Layer_1" data-name="Layer 1" xmlns="http://www.w3.org/2000/svg" width="19.97" height="15.5" viewBox="0 0 19.97 15.5"><defs><style>.cls-1{opacity:0.7;}.cls-2{fill:#fff;}</style></defs><title>Mondelez_Eropanel_Sprite</title><g class="cls-1"><path class="cls-2" d="M9,13V4.61a.27.27,0,0,0-.28-.28.28.28,0,0,0-.28.28V13a.28.28,0,0,0,.28.28A.27.27,0,0,0,9,13Z"/></g><g class="cls-1"><path class="cls-2" d="M13.36,1.45a7.26,7.26,0,0,0-1.62-.21A3.47,3.47,0,0,0,9.11,2.32a3.91,3.91,0,0,0-.4.54,3.91,3.91,0,0,0-.4-.54A3.45,3.45,0,0,0,5.68,1.24,10.27,10.27,0,0,0,2.4,2,7.28,7.28,0,0,1,.28,2.5.28.28,0,0,0,0,2.78V14.1a.29.29,0,0,0,.28.28,7.53,7.53,0,0,0,2.3-.56,9.73,9.73,0,0,1,3.1-.7A2.88,2.88,0,0,1,7.9,14a.26.26,0,0,0,.39,0,.27.27,0,0,0,0-.4,3.45,3.45,0,0,0-2.63-1.08,10.27,10.27,0,0,0-3.28.73,9.4,9.4,0,0,1-1.84.51V3.05a9.31,9.31,0,0,0,2-.55,9.73,9.73,0,0,1,3.1-.7A2.77,2.77,0,0,1,8.44,3.59a.29.29,0,0,0,.27.2A.28.28,0,0,0,9,3.59,2.82,2.82,0,0,1,11.74,1.8a6,6,0,0,1,1.4.18A4.93,4.93,0,0,1,13.36,1.45Z"/></g><g class="cls-1"><path class="cls-2" d="M16.86,7.19V13.8A9.4,9.4,0,0,1,15,13.29a10.21,10.21,0,0,0-3.28-.73,3.47,3.47,0,0,0-2.63,1.08.29.29,0,0,0,0,.4.28.28,0,0,0,.4,0,2.86,2.86,0,0,1,2.21-.9,9.73,9.73,0,0,1,3.1.7,7.53,7.53,0,0,0,2.3.56.28.28,0,0,0,.28-.28v-7A4.58,4.58,0,0,1,16.86,7.19Z"/></g><g class="cls-1"><path class="cls-2" d="M17.14,14.94A7.12,7.12,0,0,1,15,14.41a10.21,10.21,0,0,0-3.28-.73,3.42,3.42,0,0,0-2.54,1h-1a3.4,3.4,0,0,0-2.54-1,10.27,10.27,0,0,0-3.28.73,7,7,0,0,1-2.12.53.29.29,0,0,0-.28.28.28.28,0,0,0,.28.28A7.79,7.79,0,0,0,2.58,15a9.74,9.74,0,0,1,3.1-.71,2.89,2.89,0,0,1,2.22.91.25.25,0,0,0,.2.09H9.32a.29.29,0,0,0,.21-.09,2.86,2.86,0,0,1,2.21-.91,9.74,9.74,0,0,1,3.1.71,7.79,7.79,0,0,0,2.3.55.27.27,0,0,0,.28-.28.28.28,0,0,0-.28-.28Z"/></g><g class="cls-1"><path class="cls-2" d="M18.49,2.81l-.83.8.2,1.14v0c0,.06,0,.12-.09.12a.14.14,0,0,1-.09,0l-1-.54-1,.54a.14.14,0,0,1-.09,0c-.06,0-.09-.06-.09-.12v0l.2-1.14-.83-.8a.17.17,0,0,1-.06-.11c0-.07.07-.1.13-.11L16,2.43l.51-1a.14.14,0,0,1,.12-.09c.05,0,.09.05.11.09l.51,1,1.14.16s.13,0,.13.11A.17.17,0,0,1,18.49,2.81Z"/></g><g class="cls-1"><path class="cls-2" d="M16.67,6.6A3.3,3.3,0,1,1,20,3.3,3.3,3.3,0,0,1,16.67,6.6Zm0-6.1a2.8,2.8,0,1,0,2.8,2.8A2.79,2.79,0,0,0,16.67.5Z"/></g><g class="cls-1"><path class="cls-2" d="M7.12,6.21a.24.24,0,0,1-.2-.11l-.44-.6-.62.63a.23.23,0,0,1-.27.06A.26.26,0,0,1,5.43,6V1.52a.25.25,0,0,1,.25-.25.25.25,0,0,1,.25.25V5.35l.4-.41a.25.25,0,0,1,.2-.07.22.22,0,0,1,.18.1l.16.22V1.78a.25.25,0,0,1,.5,0V6a.26.26,0,0,1-.17.24Z"/></g></svg>