<svg id="Layer_1" data-name="Layer 1" xmlns="http://www.w3.org/2000/svg" viewBox="0 0 12.35 12.35"><defs><style>.cls-1{opacity:0.7;}.cls-2{fill:#303030;}</style></defs><title>Mondelez_Eropanel_Sprite</title><g class="cls-1"><path class="cls-2" d="M6.18,12.35a6.18,6.18,0,1,1,6.17-6.17A6.18,6.18,0,0,1,6.18,12.35ZM1.8,6.18A4.38,4.38,0,1,0,6.18,1.8,4.38,4.38,0,0,0,1.8,6.18Zm7.13.45L6.36,9.19a.27.27,0,0,1-.18.07A.28.28,0,0,1,6,9.19L3.42,6.62a.27.27,0,0,1-.06-.28.26.26,0,0,1,.24-.16H5.15V3.34a.25.25,0,0,1,.25-.25H7a.26.26,0,0,1,.26.25V6.18H8.75A.26.26,0,0,1,9,6.43.39.39,0,0,1,8.93,6.63Z"/></g></svg>