<svg xmlns="http://www.w3.org/2000/svg" width="49.47" height="46.77" viewBox="0 0 49.47 46.77"><defs><style>.cls-1{isolation:isolate;}.cls-2{fill:#4f2170;}.cls-3{opacity:0.3;mix-blend-mode:multiply;}.cls-4{fill:none;stroke:#2b2b2b;stroke-width:0.75px;fill-rule:evenodd;}.cls-4,.cls-6{stroke-miterlimit:10;}.cls-5{fill:#2b2b2b;}.cls-6,.cls-7{fill:#fff;}.cls-6{stroke:#686872;}</style></defs><title>Mondelez_Eropanel_Sprite</title><g class="cls-1"><g id="Layer_1" data-name="Layer 1"><circle class="cls-2" cx="24.73" cy="21.35" r="21.35"/><g class="cls-3"><path d="M24.73.75a20.6,20.6,0,1,1-20.6,20.6A20.63,20.63,0,0,1,24.73.75m0-.75A21.35,21.35,0,1,0,46.09,21.35,21.35,21.35,0,0,0,24.73,0Z"/></g><path class="cls-4" d="M.38,20.48a24.36,24.36,0,1,0,48.71,0"/><rect class="cls-5" x="22.19" y="43.72" width="5.1" height="3.05"/><circle class="cls-6" cx="41.76" cy="9.08" r="2.62"/><path class="cls-7" d="M37,19.43l-5.26,5.13L33,31.81a2.81,2.81,0,0,1,0,.29c0,.38-.17.73-.59.73a1.23,1.23,0,0,1-.58-.18l-6.51-3.42-6.5,3.42a1.27,1.27,0,0,1-.58.18c-.42,0-.61-.35-.61-.73a1.43,1.43,0,0,1,0-.29l1.24-7.25L13.6,19.43a1.06,1.06,0,0,1-.36-.69c0-.44.45-.61.81-.67L21.32,17l3.26-6.59c.13-.28.38-.59.71-.59a.88.88,0,0,1,.71.59L29.26,17l7.28,1.06c.35.06.81.23.81.67A1,1,0,0,1,37,19.43Z"/></g></g></svg>