<svg id="Layer_1" data-name="Layer 1" xmlns="http://www.w3.org/2000/svg" width="17.29" height="13.63" viewBox="0 0 17.29 13.63"><defs><style>.cls-1{fill:#fff;}</style></defs><title>Mondelez_Eropanel_Sprite</title><path class="cls-1" d="M.41,13.63A.41.41,0,0,1,0,13.3v0c0-.19,0-.29,0-.39a11.2,11.2,0,0,1,1.3-4.43C2.44,6.38,4.84,3.87,9.82,3.67h.24V.41A.39.39,0,0,1,10.3,0a.33.33,0,0,1,.17,0,.43.43,0,0,1,.27.1l6.4,5.49a.4.4,0,0,1,.15.31.42.42,0,0,1-.15.31l-6.4,5.49a.43.43,0,0,1-.27.1.47.47,0,0,1-.17,0,.4.4,0,0,1-.24-.37V8.17l-.27,0C7.16,8.44,1,9.42.83,13.05v.16A.41.41,0,0,1,.41,13.63ZM10.47,7.32a.39.39,0,0,1,.28.11.38.38,0,0,1,.13.3v2.76L16.24,5.9,10.88,1.3V4.07a.4.4,0,0,1-.12.29.38.38,0,0,1-.29.12c-5.28,0-7.64,2.62-8.69,4.81l-.4.83.76-.51c3-2,8.1-2.28,8.31-2.29Z"/></svg>