<svg id="Layer_1" data-name="Layer 1" xmlns="http://www.w3.org/2000/svg" viewBox="0 0 13.25 16"><defs><style>.cls-1{fill:#fff;}</style></defs><title>Mondelez_Eropanel_Dropdown icon</title><path class="cls-1" d="M.53,9.25a.34.34,0,0,0-.22-.09.36.36,0,0,0-.22.09A.32.32,0,0,0,0,9.48a.31.31,0,0,0,.09.22.36.36,0,0,0,.22.09A.34.34,0,0,0,.53,9.7a.31.31,0,0,0,.09-.22A.32.32,0,0,0,.53,9.25Z"/><path class="cls-1" d="M12.94,0H1.69A1.69,1.69,0,0,0,0,1.69V8.4a.31.31,0,0,0,.31.31A.31.31,0,0,0,.62,8.4V1.69a1.08,1.08,0,0,1,.75-1V5.84a.32.32,0,0,0,.63,0V.62H12.62v12h-2.2a.31.31,0,0,0,0,.62h2.2V14H2.31a.32.32,0,0,0,0,.63H12.62v.75H1.69a1.07,1.07,0,1,1,0-2.13H8a.31.31,0,0,0,0-.62H2V7.17a.32.32,0,1,0-.63,0v5.49A1.71,1.71,0,0,0,.62,13V10.6a.31.31,0,0,0-.31-.31A.31.31,0,0,0,0,10.6v3.71A1.69,1.69,0,0,0,1.69,16H12.94a.31.31,0,0,0,.31-.31V.31A.31.31,0,0,0,12.94,0Z"/><path class="cls-1" d="M9.57,12.72a.28.28,0,0,0-.22-.09.31.31,0,1,0,0,.62.28.28,0,0,0,.22-.09.29.29,0,0,0,0-.44Z"/><path class="cls-1" d="M7.25,10.66a.5.5,0,0,0,.35-.14.49.49,0,0,0,.15-.36v-4a.5.5,0,0,0-1,0v4a.49.49,0,0,0,.15.36A.5.5,0,0,0,7.25,10.66Z"/><path class="cls-1" d="M7.25,4.66a.51.51,0,0,0,.5-.5v-.5a.5.5,0,0,0-1,0v.5a.51.51,0,0,0,.5.5Z"/></svg>