<?xml version="1.0" encoding="UTF-8"?><svg id="Layer_1" xmlns="http://www.w3.org/2000/svg" width="27.5" height="26.85" viewBox="0 0 27.5 26.85"><defs><style>.cls-1{fill:#e18719;}</style></defs><path class="cls-1" d="m18.56,13c-.27,0-.51-.1-.7-.29l-4.8-4.8-4.8,4.8c-.19.19-.44.29-.7.29s-.51-.1-.7-.29c-.19-.19-.29-.44-.29-.7s.1-.51.29-.7l4.8-4.81L6.85,1.7c-.19-.19-.29-.44-.29-.7s.1-.51.29-.7c.19-.19.44-.29.7-.29s.51.1.7.29l4.8,4.8L17.86.29c.19-.19.44-.29.7-.29s.51.1.7.29.29.44.29.7-.1.51-.29.7l-4.8,4.8,4.8,4.81c.19.19.29.44.29.7s-.1.51-.29.7c-.19.19-.44.29-.7.29Z"/><rect class="cls-1" y="24.52" width="27.5" height="2.34"/></svg>