<svg id="Layer_1" data-name="Layer 1" xmlns="http://www.w3.org/2000/svg" viewBox="0 0 14.71 16.5"><defs><style>.cls-1{opacity:0.7;}.cls-2{fill:#303030;}</style></defs><title>Mondelez_Eropanel_Sprite</title><g class="cls-1"><path class="cls-2" d="M2.53,6.42c-.34-.61-.66-1.21-1-1.8L.16,2.13A1.22,1.22,0,0,1,.71.41c.26-.12.53-.23.8-.33A1.24,1.24,0,0,1,3.14.9C3.59,2.42,4,4,4.5,5.47c0,0,0,.07,0,.12l.2-.07c.37-.16.74-.32,1.12-.46a1.24,1.24,0,0,1,1.62.67c.11.25.21.51.32.78l-7,2.86a9.29,9.29,0,0,1-.37-1A1.22,1.22,0,0,1,1.24,7Z"/><path class="cls-2" d="M2.89,16.3l.37-.58a2.73,2.73,0,0,0,.38,0h9.92a.37.37,0,0,0,.41-.42V3a.68.68,0,0,0-.06-.32c-.07-.16-.23-.18-.39-.18H4.44L4.22,1.8h9.35A1.1,1.1,0,0,1,14.71,3V15.31a1.11,1.11,0,0,1-1.18,1.19H3.58A1.09,1.09,0,0,1,2.89,16.3Z"/><path class="cls-2" d="M8,6.9,10,12l-1.1-.24c-.38-.09-.38-.09-.59.24s-.36.54-.53.82a.19.19,0,0,1-.24.11c-.4-.11-.8-.18-1.2-.28a.18.18,0,0,0-.22.09c-.22.35-.46.68-.68,1a.21.21,0,0,1-.28.11c-.36-.11-.73-.19-1.1-.29a.16.16,0,0,0-.22.09c-.25.38-.51.76-.78,1.18L1,9.75Zm-.23.55-1.15.47,1.1,2.7-.38.16L6.19,8.08l-.77.32,1.1,2.7-.38.15L5,8.55l-.77.32,1.11,2.7L5,11.73,3.87,9l-.77.32,1.11,2.7-.39.15L2.71,9.5,1.56,10l1.62,3.94.51-.77a.16.16,0,0,1,.22-.09c.37.11.75.19,1.12.3a.18.18,0,0,0,.24-.09c.22-.35.46-.68.67-1a.21.21,0,0,1,.27-.1l1.18.27a.17.17,0,0,0,.21-.09c.21-.34.44-.67.65-1a.21.21,0,0,1,.28-.11c.26.07.52.12.81.18Z"/></g></svg>