<svg id="Layer_1" data-name="Layer 1" xmlns="http://www.w3.org/2000/svg" viewBox="0 0 14.69 15.79"><defs><style>.cls-1{fill:#5d5d5d;}</style></defs><title>Mondelez_Eropanel_Sprite</title><rect class="cls-1" x="6.11" y="8.68" width="7.11" height="0.87" transform="matrix(0.04, -1, 1, 0.04, 0.2, 18.43)"/><rect class="cls-1" x="6.91" y="5.56" width="0.87" height="7.1"/><rect class="cls-1" x="4.6" y="5.56" width="0.87" height="7.11" transform="translate(-0.32 0.19) rotate(-2.06)"/><path class="cls-1" d="M2.8,15.79a.43.43,0,0,1-.43-.39L1.3,3.3H0V2.43H14.69V3.3H13.37L12.3,15.4a.43.43,0,0,1-.43.39Zm.4-.87h8.27l1-11.62H2.18Z"/><path class="cls-1" d="M9.41,2.67V.87H5.29v1.8H4.42V.86A.85.85,0,0,1,5.27,0H9.42a.85.85,0,0,1,.85.86V2.67Z"/></svg>