<svg id="Layer_1" data-name="Layer 1" xmlns="http://www.w3.org/2000/svg" width="1098" height="581" viewBox="0 0 1098 581"><defs><style>.cls-1{fill:#4f2170;}.cls-2{fill:#724d8d;}.cls-3{fill:#957aa9;}.cls-4{fill:#e18719;}.cls-5{fill:#eaab5e;}.cls-6{fill:#f3cfa3;}.cls-7{fill:#287819;}.cls-8{fill:#73a769;}.cls-9{fill:#b4d0af;}.cls-10{fill:#623e23;}.cls-11{fill:#93785f;}.cls-12{fill:#beada0;}.cls-13{fill:#a52323;}.cls-14{fill:#c97b7b;}.cls-15{fill:#e4bdbd;}.cls-16{fill:#2d6eaa;}.cls-17{fill:#81a8cc;}.cls-18{fill:#abc5dd;}.cls-19{fill:#e6af23;}.cls-20{fill:#edc765;}.cls-21{fill:#f4db9c;}.cls-22{fill:#666;}.cls-23{fill:#858585;}.cls-24{fill:#a3a3a3;}</style></defs><title>Mondelez_Eropanel_Sprite</title><rect class="cls-1" x="59" y="54.79" width="88" height="39.21"/><rect class="cls-2" x="59" y="124" width="88" height="39.21"/><rect class="cls-3" x="59" y="193.21" width="88" height="39.21"/><rect class="cls-4" x="187" y="54.79" width="88" height="39.21"/><rect class="cls-5" x="187" y="124" width="88" height="39.21"/><rect class="cls-6" x="187" y="193.21" width="88" height="39.21"/><rect class="cls-7" x="315" y="54.79" width="88" height="39.21"/><rect class="cls-8" x="315" y="124" width="88" height="39.21"/><rect class="cls-9" x="315" y="193.21" width="88" height="39.21"/><rect class="cls-10" x="443" y="54.79" width="88" height="39.21"/><rect class="cls-11" x="443" y="124" width="88" height="39.21"/><rect class="cls-12" x="443" y="193.21" width="88" height="39.21"/><rect class="cls-13" x="571" y="54.79" width="88" height="39.21"/><rect class="cls-14" x="571" y="124" width="88" height="39.21"/><rect class="cls-15" x="571" y="193.21" width="88" height="39.21"/><rect class="cls-16" x="699" y="54.79" width="88" height="39.21"/><rect class="cls-17" x="699" y="124" width="88" height="39.21"/><rect class="cls-18" x="699" y="193.21" width="88" height="39.21"/><rect class="cls-19" x="827" y="54.79" width="88" height="39.21"/><rect class="cls-20" x="827" y="124" width="88" height="39.21"/><rect class="cls-21" x="827" y="193.21" width="88" height="39.21"/><rect class="cls-22" x="955" y="54.79" width="88" height="39.21"/><rect class="cls-23" x="955" y="124" width="88" height="39.21"/><rect class="cls-24" x="955" y="193.21" width="88" height="39.21"/></svg>