<svg id="Layer_1" data-name="Layer 1" xmlns="http://www.w3.org/2000/svg" viewBox="0 0 12.41 12"><defs><style>.cls-1{fill:gray;}</style></defs><title>Mondelez_Eropanel_Sprite</title><path class="cls-1" d="M8.79,12a.56.56,0,1,1,0-1.12h1.69L7.64,8a.55.55,0,0,1-.16-.4.51.51,0,0,1,.16-.39A.56.56,0,0,1,8,7.08a.52.52,0,0,1,.39.17l2.85,2.85V8.41a.58.58,0,0,1,.56-.6.59.59,0,0,1,.57.6v3a.6.6,0,0,1-.61.63Z"/><path class="cls-1" d="M.61,12A.58.58,0,0,1,0,11.44v-3a.58.58,0,0,1,.56-.6.58.58,0,0,1,.56.6V10.1L4,7.25a.56.56,0,0,1,.8,0,.57.57,0,0,1,0,.79L1.93,10.88H3.61a.56.56,0,1,1,0,1.12Z"/><path class="cls-1" d="M8,4.92a.56.56,0,0,1-.4-.17.55.55,0,0,1-.16-.4A.51.51,0,0,1,7.64,4l2.84-2.84H8.79a.58.58,0,0,1-.6-.56A.58.58,0,0,1,8.79,0h3a.59.59,0,0,1,.61.56v3a.59.59,0,0,1-.57.6.58.58,0,0,1-.56-.6V1.9L8.43,4.75A.52.52,0,0,1,8,4.92Z"/><path class="cls-1" d="M4.37,4.92A.56.56,0,0,1,4,4.75L1.12,1.9V3.59a.58.58,0,0,1-.56.6A.58.58,0,0,1,0,3.59v-3A.6.6,0,0,1,.61,0h3a.58.58,0,0,1,.61.56.58.58,0,0,1-.61.56H1.93L4.77,4a.55.55,0,0,1,.16.39.59.59,0,0,1-.16.4A.56.56,0,0,1,4.37,4.92Z"/></svg>