<svg id="Layer_1" data-name="Layer 1" xmlns="http://www.w3.org/2000/svg" viewBox="0 0 20.75 15.23"><defs><style>.cls-1{fill:#ce3689;}</style></defs><title>Mondelez_Eropanel_Dropdown icon</title><path class="cls-1" d="M7.61,15.23a7.62,7.62,0,1,1,6.67-11.3.38.38,0,0,1-.66.37,6.86,6.86,0,1,0,0,6.64.37.37,0,0,1,.65.37A7.61,7.61,0,0,1,7.61,15.23Z"/><path class="cls-1" d="M19.77,8H6.51a.38.38,0,0,1,0-.75H19.77a.38.38,0,1,1,0,.75Z"/><path class="cls-1" d="M17.25,11.43a.39.39,0,0,1-.25-.1.37.37,0,0,1,0-.53l2.88-3.17-3.1-2.94a.37.37,0,0,1,0-.53.38.38,0,0,1,.53,0l3.36,3.19a.38.38,0,0,1,0,.53L17.53,11.3A.37.37,0,0,1,17.25,11.43Z"/></svg>