<svg id="Layer_1" data-name="Layer 1" xmlns="http://www.w3.org/2000/svg" width="12.4" height="12.4" viewBox="0 0 12.4 12.4"><defs><style>.cls-1{fill:gray;}</style></defs><title>Mondelez_Eropanel_Sprite</title><path class="cls-1" d="M6.2,12.4a6.2,6.2,0,1,1,6.2-6.2A6.21,6.21,0,0,1,6.2,12.4Zm0-11.26A5.06,5.06,0,1,0,11.26,6.2,5.07,5.07,0,0,0,6.2,1.14Z"/><path class="cls-1" d="M6.2,4.62a.82.82,0,0,1-.82-.81A.82.82,0,1,1,7,3.81.82.82,0,0,1,6.2,4.62Z"/><path class="cls-1" d="M6.2,9.51a.58.58,0,0,1-.57-.57V5.8a.57.57,0,1,1,1.14,0V8.94A.58.58,0,0,1,6.2,9.51Z"/></svg>