<svg id="Layer_1" data-name="Layer 1" xmlns="http://www.w3.org/2000/svg" width="16.27" height="17.83" viewBox="0 0 16.27 17.83"><defs><style>.cls-1{fill:#fff;}</style></defs><title>Mondelez_Eropanel_Sprite</title><path class="cls-1" d="M.56,11a.33.33,0,0,1-.33-.25A8.08,8.08,0,0,1,8.05.73h.42a8,8,0,0,1,4.68,1.79l.28.23L13.34.35A.33.33,0,0,1,13.66,0h0A.33.33,0,0,1,14,.33l.13,3.27a.36.36,0,0,1-.33.39l-3.31.12a.34.34,0,0,1-.35-.33.34.34,0,0,1,.33-.35l2.58-.1-.33-.26A7.38,7.38,0,0,0,.89,10.54a.39.39,0,0,1,0,.26A.32.32,0,0,1,.64,11Z"/><path class="cls-1" d="M2.72,17.83a.34.34,0,0,1-.33-.31l-.3-3.29a.35.35,0,0,1,.31-.38l3.29-.29a.35.35,0,0,1,.37.31.33.33,0,0,1-.31.36l-2.56.24.3.24a7.39,7.39,0,0,0,11.9-7.42.34.34,0,0,1,0-.26.34.34,0,0,1,.21-.16h.08a.35.35,0,0,1,.33.26,8.08,8.08,0,0,1-7.84,10H7.8a8,8,0,0,1-4.66-1.78l-.29-.24.21,2.39a.34.34,0,0,1-.31.37Z"/></svg>