<svg id="Layer_1" data-name="Layer 1" xmlns="http://www.w3.org/2000/svg" width="16.32" height="12.22" viewBox="0 0 16.32 12.22"><defs><style>.cls-1{fill:#fff;}</style></defs><title>Mondelez_Eropanel_Sprite</title><path class="cls-1" d="M.28,12.22A.3.3,0,0,1,0,11.9a.3.3,0,0,1,.28-.32h.87v-4a.3.3,0,0,1,.28-.31H3.35a.3.3,0,0,1,.28.31v4H5V3.21a.3.3,0,0,1,.27-.32H7.2a.3.3,0,0,1,.27.32v8.37H8.84V5.38a.3.3,0,0,1,.28-.31H11a.3.3,0,0,1,.28.31v6.2h1.37V.32A.3.3,0,0,1,13,0h1.93a.3.3,0,0,1,.27.32V11.58H16a.3.3,0,0,1,.28.32.31.31,0,0,1-.28.32Z"/><rect class="cls-1" x="9.4" y="5.7" width="1.37" height="5.88"/><rect class="cls-1" x="5.55" y="3.53" width="1.37" height="8.05"/><rect class="cls-1" x="1.71" y="7.87" width="1.37" height="3.71"/><rect class="cls-1" x="13.24" y="0.64" width="1.37" height="10.94"/></svg>