<?xml version="1.0" encoding="UTF-8"?><svg id="Layer_1" xmlns="http://www.w3.org/2000/svg" width="16.4" height="16.09" viewBox="0 0 16.4 16.09"><defs><style>.cls-1{fill:#303030;}.cls-2{opacity:.7;}</style></defs><g class="cls-2"><path class="cls-1" d="m5.79,12.5c.27.35.41.76.41,1.22,0,.35-.09.68-.27.98-.18.3-.42.55-.72.73-.3.19-.64.28-1.02.28s-.71-.09-1.02-.28c-.3-.19-.54-.43-.72-.73-.18-.3-.27-.63-.27-.98,0-.38.09-.71.27-1.02.18-.3.42-.54.72-.72.3-.18.64-.27,1.02-.27.29,0,.56.05.81.16l.94-1.19c-.29-.33-.5-.71-.62-1.14-.12-.43-.16-.86-.09-1.3l-1.34-.47c-.19.29-.43.52-.72.69-.29.17-.62.25-.97.25-.38,0-.71-.09-1.02-.28-.3-.19-.54-.43-.72-.73-.18-.3-.27-.63-.27-.98,0-.38.09-.71.27-1.02.18-.3.42-.54.72-.72.3-.18.64-.27,1.02-.27s.71.09,1.02.27c.3.18.54.42.72.72.18.3.27.64.27,1.02v.12l1.34.47c.21-.42.5-.76.88-1.03.38-.27.8-.45,1.28-.53v-1.44c-.44-.1-.8-.34-1.08-.7-.28-.36-.42-.78-.42-1.23,0-.38.09-.71.27-1.02.18-.3.42-.54.72-.72.3-.18.64-.27,1.02-.27s.71.09,1.02.27c.3.18.54.42.72.72.18.3.27.64.27,1.02,0,.46-.14.87-.42,1.23-.28.37-.64.6-1.08.7v1.44c.46.08.88.26,1.25.53.38.27.68.62.91,1.03l1.34-.47v-.12c0-.38.09-.71.27-1.02.18-.3.42-.54.72-.72.3-.18.64-.27,1.02-.27s.71.09,1.02.27c.3.18.54.42.72.72.18.3.27.64.27,1.02,0,.35-.09.68-.27.98-.18.3-.42.55-.72.73-.3.19-.64.28-1.02.28-.35,0-.68-.08-.97-.25-.29-.17-.53-.4-.72-.69l-1.34.47c.06.44.04.87-.08,1.3-.12.43-.33.82-.64,1.17l.94,1.16c.25-.1.52-.16.81-.16.38,0,.71.09,1.02.27.3.18.54.42.72.72.18.3.27.64.27,1.02,0,.35-.09.68-.27.98-.18.3-.42.55-.72.73-.3.19-.64.28-1.02.28s-.71-.09-1.02-.28c-.3-.19-.54-.43-.72-.73-.18-.3-.27-.63-.27-.98,0-.46.13-.86.41-1.22l-.94-1.16c-.46.25-.95.38-1.47.38s-1.01-.12-1.47-.38l-.94,1.16Z"/></g></svg>