<?xml version="1.0" encoding="UTF-8"?><svg id="Layer_1" xmlns="http://www.w3.org/2000/svg" width="10.29" height="10.29" viewBox="0 0 10.29 10.29"><defs><style>.cls-1{fill:#fff;}</style></defs><path class="cls-1" d="m5.14,10.29C2.3,10.29,0,7.98,0,5.14S2.3,0,5.14,0s5.14,2.3,5.14,5.14-2.3,5.14-5.14,5.14Zm0-8.79c-2.01,0-3.64,1.63-3.64,3.64s1.63,3.64,3.64,3.64,3.64-1.63,3.64-3.64-1.63-3.64-3.64-3.64Zm1.23,5.85c-.09.09-.22.09-.31,0l-.92-.92-.92.92c-.09.09-.22.09-.31,0l-.98-.98c-.09-.09-.09-.22,0-.31l.92-.92-.92-.92c-.09-.09-.09-.22,0-.31l.98-.98c.09-.09.22-.09.31,0l.92.92.92-.92c.09-.09.22-.09.31,0l.98.98c.09.09.09.22,0,.31l-.92.92.92.92c.09.09.09.22,0,.31l-.98.98Z"/></svg>