<svg id="Layer_1" data-name="Layer 1" xmlns="http://www.w3.org/2000/svg" viewBox="0 0 15.99 17"><defs><style>.cls-1{fill:#ce3689;}</style></defs><title>Mondelez_Eropanel_Dropdown icon</title><path class="cls-1" d="M13.81,6.46V5.81a6,6,0,0,0-1.56-4.1A5.37,5.37,0,0,0,8.27,0H7.73a5.41,5.41,0,0,0-4,1.71,6,6,0,0,0-1.55,4.1v.65A2.36,2.36,0,0,0,0,8.8v1a2.34,2.34,0,0,0,2.34,2.34H3.66a.43.43,0,0,0,.43-.43V6.89a.43.43,0,0,0-.43-.43H3V5.81A4.72,4.72,0,0,1,7.72.86h.54A4.72,4.72,0,0,1,13,5.81v.65h-.62a.43.43,0,0,0-.43.43v4.84a.44.44,0,0,0,.43.43h.6A2.85,2.85,0,0,1,10.5,15a1.49,1.49,0,0,0-1.43-1H8a1.51,1.51,0,0,0,0,3H9.07a1.49,1.49,0,0,0,1.45-1.11A4.07,4.07,0,0,0,12,15.4a3.8,3.8,0,0,0,1.81-3.25A2.33,2.33,0,0,0,16,9.82v-1A2.34,2.34,0,0,0,13.81,6.46ZM3.24,11.3H2.35A1.49,1.49,0,0,1,.86,9.82v-1A1.49,1.49,0,0,1,2.35,7.31h.89Zm5.83,4.84H8a.65.65,0,1,1,0-1.29H9.07a.65.65,0,1,1,0,1.29Zm6.07-6.32a1.49,1.49,0,0,1-1.49,1.48h-.89v-4h.89A1.49,1.49,0,0,1,15.14,8.8Z"/></svg>