<svg id="Layer_1" data-name="Layer 1" xmlns="http://www.w3.org/2000/svg" viewBox="0 0 16.73 13.63"><defs><style>.cls-1{fill:#4f2170;}</style></defs><title>Mondelez_Eropanel_Sprite</title><path class="cls-1" d="M8.42,13.63A2.07,2.07,0,0,1,8.14,9.5l.15,0V5.4H8.13a2.72,2.72,0,0,1-1.44-.6l-.13-.11L3.24,8l.1.13a1.85,1.85,0,0,1,.41,1.16A1.88,1.88,0,1,1,1.87,7.42,1.84,1.84,0,0,1,3,7.77l.13.09L6.41,4.54l-.1-.13A2.67,2.67,0,0,1,5.7,2.7a2.7,2.7,0,1,1,5.4,0,2.73,2.73,0,0,1-.61,1.71l-.11.13,3.3,3.29.12-.08a1.82,1.82,0,0,1,1.06-.33A1.87,1.87,0,1,1,13,9.29a1.9,1.9,0,0,1,.42-1.19L13.52,8,10.24,4.68l-.13.11a2.75,2.75,0,0,1-1.44.6H8.5V9.48l.16,0a2.07,2.07,0,0,1-.24,4.13Zm0-3.6a1.53,1.53,0,1,0,1.52,1.52A1.54,1.54,0,0,0,8.42,10Zm6.44-2.24a1.5,1.5,0,1,0,1.49,1.5,1.51,1.51,0,0,0-1.49-1.5Zm-13,0A1.48,1.48,0,1,0,3.35,9.29,1.49,1.49,0,0,0,1.87,7.81Z"/><path class="cls-1" d="M8.42,12.55a1,1,0,1,1,1-1A1,1,0,0,1,8.42,12.55Z"/><path class="cls-1" d="M1.87,10.27a1,1,0,1,1,1-1A1,1,0,0,1,1.87,10.27Z"/><path class="cls-1" d="M14.86,10.28a1,1,0,1,1,1-1A1,1,0,0,1,14.86,10.28Z"/></svg>