<svg id="Layer_1" data-name="Layer 1" xmlns="http://www.w3.org/2000/svg" width="18.82" height="10.82" viewBox="0 0 18.82 10.82"><defs><style>.cls-1{fill:#fff;}</style></defs><title>Mondelez_Eropanel_Sprite</title><path class="cls-1" d="M1.76,10.82A1.82,1.82,0,0,1,0,8.94,1.82,1.82,0,0,1,1.76,7.07,1.82,1.82,0,0,1,3.51,8.94,1.82,1.82,0,0,1,1.76,10.82Zm0-2.93a1.05,1.05,0,0,0,0,2.1,1.05,1.05,0,0,0,0-2.1Z"/><path class="cls-1" d="M6,5.81A1.83,1.83,0,0,1,4.25,3.93,1.82,1.82,0,0,1,6,2.05,1.82,1.82,0,0,1,7.77,3.93,1.83,1.83,0,0,1,6,5.81ZM6,2.88A1,1,0,0,0,5,3.93,1,1,0,0,0,6,5,1,1,0,0,0,7,3.93,1,1,0,0,0,6,2.88Z"/><path class="cls-1" d="M11.22,9.85A1.83,1.83,0,0,1,9.47,8a1.82,1.82,0,0,1,1.75-1.88A1.82,1.82,0,0,1,13,8,1.83,1.83,0,0,1,11.22,9.85Zm0-2.93a1.05,1.05,0,1,0,1,1A1,1,0,0,0,11.22,6.92Z"/><path class="cls-1" d="M17.07,3.76a1.83,1.83,0,0,1-1.76-1.88,1.76,1.76,0,1,1,3.51,0A1.82,1.82,0,0,1,17.07,3.76Zm0-2.93a1,1,0,0,0-1,1,1,1,0,1,0,2,0A1,1,0,0,0,17.07.83Z"/><path class="cls-1" d="M12.58,7.36a.36.36,0,0,1-.27-.12A.38.38,0,0,1,12.19,7a.44.44,0,0,1,.11-.29l3.5-3.82a.39.39,0,0,1,.28-.13.36.36,0,0,1,.27.12.45.45,0,0,1,.12.29.46.46,0,0,1-.11.3L12.85,7.24A.36.36,0,0,1,12.58,7.36Z"/><path class="cls-1" d="M10.09,7A.39.39,0,0,1,10,6.91L7.2,5a.36.36,0,0,1-.12-.53.43.43,0,0,1,.48-.09.24.24,0,0,1,.11.06l2.79,1.93a.46.46,0,0,1,.18.26.3.3,0,0,1-.07.27A.43.43,0,0,1,10.09,7Z"/><path class="cls-1" d="M2.84,8a.27.27,0,0,1-.26,0,.25.25,0,0,1-.12-.19.29.29,0,0,1,.07-.22L4.79,4.9A.27.27,0,0,1,5,4.8a.29.29,0,0,1,.27,0,.28.28,0,0,1,0,.41L3,7.93A.32.32,0,0,1,2.84,8Z"/></svg>