<svg id="Layer_1" data-name="Layer 1" xmlns="http://www.w3.org/2000/svg" viewBox="0 0 15.58 16.2"><defs><style>.cls-1{fill:#5d5d5d;}</style></defs><title>Mondelez</title><path class="cls-1" d="M12.59,14.23a.29.29,0,0,0,.35,0A6.82,6.82,0,0,0,13,3.51l-.29-.22A6.76,6.76,0,0,0,8.69,2h-.3L9.72.47a.28.28,0,0,0,0-.4h0a.27.27,0,0,0-.4,0L7.48,2.2a.29.29,0,0,0,0,.43L9.61,4.45A.29.29,0,1,0,10,4L8.33,2.59h.36a6.25,6.25,0,0,1,3.9,11.19.23.23,0,0,0-.1.19.31.31,0,0,0,0,.21Z"/><path class="cls-1" d="M13.53,14.57v1.12H10.66V12.82h2.06a3.57,3.57,0,0,0,.45-.51H10.66V9.43h2.87V11.8A5.64,5.64,0,0,0,14,10.75V6.94a5.69,5.69,0,0,0-.74-1.4H.51V2.67H6.79a1,1,0,0,1,0-.51H0v14H14V14.1A5.68,5.68,0,0,1,13.53,14.57ZM10.66,6.05h2.87V8.93H10.66ZM3.38,15.69H.51V12.82H3.38Zm0-3.38H.51V9.43H3.38Zm0-3.38H.51V6.05H3.38Zm3.39,6.76H3.89V12.82H6.77Zm0-3.38H3.89V9.43H6.77Zm0-3.38H3.89V6.05H6.77Zm3.38,6.76H7.27V12.82h2.88Zm0-3.38H7.27V9.43h2.88Zm0-3.38H7.27V6.05h2.88Z"/><path class="cls-1" d="M12.94,2.67h.59v.44c.18.15.35.3.51.46V2.16h-2A7.48,7.48,0,0,1,12.94,2.67Z"/></svg>