<svg id="Layer_1" data-name="Layer 1" xmlns="http://www.w3.org/2000/svg" viewBox="0 0 14 14"><defs><style>.cls-1{fill:#4f2170;}</style></defs><title>Mondelez_Eropanel_Sprite</title><path class="cls-1" d="M1.43,14A1.43,1.43,0,0,1,0,12.57V3A1.43,1.43,0,0,1,1.43,1.54H3.31V.44A.44.44,0,0,1,3.75,0h.89a.44.44,0,0,1,.44.44V1.53H8.91V.44A.45.45,0,0,1,9.36,0h.89a.44.44,0,0,1,.44.44V1.53h1.87A1.44,1.44,0,0,1,14,3v9.6A1.43,1.43,0,0,1,12.56,14ZM1,12.57a.47.47,0,0,0,.48.47H12.56a.47.47,0,0,0,.48-.47V5.34H1Zm7.63-.73a.14.14,0,0,1-.14-.14v-1a.15.15,0,0,1,.14-.15h1a.15.15,0,0,1,.15.15v1a.15.15,0,0,1-.15.14Zm-2.08,0a.14.14,0,0,1-.14-.14v-1a.15.15,0,0,1,.14-.15h1a.15.15,0,0,1,.15.15v1a.15.15,0,0,1-.15.14Zm-2.08,0a.14.14,0,0,1-.14-.14v-1a.15.15,0,0,1,.14-.15h1a.15.15,0,0,1,.14.15v1a.14.14,0,0,1-.14.14Zm6.24-2a.15.15,0,0,1-.15-.14v-1a.15.15,0,0,1,.15-.14h1a.15.15,0,0,1,.15.14v1a.15.15,0,0,1-.15.14Zm-2.08,0a.14.14,0,0,1-.14-.14v-1a.14.14,0,0,1,.14-.14h1a.15.15,0,0,1,.15.14v1a.15.15,0,0,1-.15.14Zm-2.08,0a.14.14,0,0,1-.14-.14v-1a.14.14,0,0,1,.14-.14h1a.15.15,0,0,1,.15.14v1a.15.15,0,0,1-.15.14Zm-2.08,0a.14.14,0,0,1-.14-.14v-1a.14.14,0,0,1,.14-.14h1a.14.14,0,0,1,.14.14v1a.14.14,0,0,1-.14.14Zm-2.07,0a.15.15,0,0,1-.15-.14v-1a.15.15,0,0,1,.15-.14h1a.14.14,0,0,1,.14.14v1a.14.14,0,0,1-.14.14Zm0-2a.15.15,0,0,1-.15-.14v-1a.15.15,0,0,1,.15-.14h1a.14.14,0,0,1,.14.14v1a.14.14,0,0,1-.14.14Zm6.23,0a.15.15,0,0,1-.14-.15v-1a.15.15,0,0,1,.14-.15h1a.15.15,0,0,1,.15.15v1a.15.15,0,0,1-.15.15Zm-2.08,0a.15.15,0,0,1-.14-.15v-1a.15.15,0,0,1,.14-.15h1a.15.15,0,0,1,.15.15v1a.15.15,0,0,1-.15.15Zm-2.08,0a.15.15,0,0,1-.14-.15v-1a.15.15,0,0,1,.14-.15h1a.15.15,0,0,1,.14.15v1a.15.15,0,0,1-.14.15Z"/></svg>