<svg xmlns="http://www.w3.org/2000/svg" viewBox="0 0 20 6.32"><defs><style>.a{fill:#ce3689;}</style></defs><title>Mondelez_Eropanel</title><path class="a" d="M2.54,6.23H1.93L0,.09H.89L2.27,4.54,3.77.09h.62l1.5,4.45L7.26.09h.9L6.23,6.23H5.61L4.08,1.68Z"/><path class="a" d="M9.91,6.23H9V.09h2.25a2.34,2.34,0,0,1,.85.13,1.67,1.67,0,0,1,.58.38,2,2,0,0,1,.39.56,1.82,1.82,0,0,1,.14.7,1.78,1.78,0,0,1-.14.7,1.92,1.92,0,0,1-.39.57,1.65,1.65,0,0,1-.58.37,2.32,2.32,0,0,1-.85.14H9.91Zm0-3.42h1.34a1.62,1.62,0,0,0,.54-.08,1,1,0,0,0,.32-.2.94.94,0,0,0,.26-.67.93.93,0,0,0-.26-.66.87.87,0,0,0-.32-.2,1.62,1.62,0,0,0-.54-.08H9.91Z"/><path class="a" d="M13.86,3.16a3.24,3.24,0,0,1,.24-1.25,2.93,2.93,0,0,1,.65-1,2.76,2.76,0,0,1,1-.67,3.17,3.17,0,0,1,2.42,0,2.86,2.86,0,0,1,1,.67,2.93,2.93,0,0,1,.65,1A3.24,3.24,0,0,1,20,3.16a3.24,3.24,0,0,1-.24,1.25,3,3,0,0,1-.65,1,3,3,0,0,1-1,.66,3.07,3.07,0,0,1-3.39-.66,3,3,0,0,1-.65-1A3.24,3.24,0,0,1,13.86,3.16Zm.88,0a2.51,2.51,0,0,0,.16.92,2.32,2.32,0,0,0,.46.74,2.16,2.16,0,0,0,.7.49,2.31,2.31,0,0,0,1.74,0,2.16,2.16,0,0,0,.7-.49A2.32,2.32,0,0,0,19,4.08a2.51,2.51,0,0,0,.16-.92A2.56,2.56,0,0,0,19,2.23a2.27,2.27,0,0,0-.46-.73A2.16,2.16,0,0,0,17.8,1a2.19,2.19,0,0,0-1.74,0,2.16,2.16,0,0,0-.7.49,2.27,2.27,0,0,0-.46.73A2.56,2.56,0,0,0,14.74,3.16Z"/><path class="a" d="M2.54,6.23H1.93L0,.09H.89L2.27,4.54,3.77.09h.62l1.5,4.45L7.26.09h.9L6.23,6.23H5.61L4.08,1.68Z"/><path class="a" d="M9.91,6.23H9V.09h2.25a2.34,2.34,0,0,1,.85.13,1.67,1.67,0,0,1,.58.38,2,2,0,0,1,.39.56,1.82,1.82,0,0,1,.14.7,1.78,1.78,0,0,1-.14.7,1.92,1.92,0,0,1-.39.57,1.65,1.65,0,0,1-.58.37,2.32,2.32,0,0,1-.85.14H9.91Zm0-3.42h1.34a1.62,1.62,0,0,0,.54-.08,1,1,0,0,0,.32-.2.94.94,0,0,0,.26-.67.93.93,0,0,0-.26-.66.87.87,0,0,0-.32-.2,1.62,1.62,0,0,0-.54-.08H9.91Z"/><path class="a" d="M13.86,3.16a3.24,3.24,0,0,1,.24-1.25,2.93,2.93,0,0,1,.65-1,2.76,2.76,0,0,1,1-.67,3.17,3.17,0,0,1,2.42,0,2.86,2.86,0,0,1,1,.67,2.93,2.93,0,0,1,.65,1A3.24,3.24,0,0,1,20,3.16a3.24,3.24,0,0,1-.24,1.25,3,3,0,0,1-.65,1,3,3,0,0,1-1,.66,3.07,3.07,0,0,1-3.39-.66,3,3,0,0,1-.65-1A3.24,3.24,0,0,1,13.86,3.16Zm.88,0a2.51,2.51,0,0,0,.16.92,2.32,2.32,0,0,0,.46.74,2.16,2.16,0,0,0,.7.49,2.31,2.31,0,0,0,1.74,0,2.16,2.16,0,0,0,.7-.49A2.32,2.32,0,0,0,19,4.08a2.51,2.51,0,0,0,.16-.92A2.56,2.56,0,0,0,19,2.23a2.27,2.27,0,0,0-.46-.73A2.16,2.16,0,0,0,17.8,1a2.19,2.19,0,0,0-1.74,0,2.16,2.16,0,0,0-.7.49,2.27,2.27,0,0,0-.46.73A2.56,2.56,0,0,0,14.74,3.16Z"/></svg>