<svg id="Layer_1" data-name="Layer 1" xmlns="http://www.w3.org/2000/svg" viewBox="0 0 20.05 18.03"><defs><style>.cls-1{fill:#fff;}</style></defs><title>Mondelez_Eropanel_Dropdown icon</title><path class="cls-1" d="M17.62,12.67v-4H10.35V5.37a2.64,2.64,0,1,0-.66,0V8.69H2.43v4a2.64,2.64,0,1,0,.66,0V9.35h6.6v3.32a2.65,2.65,0,1,0,.66,0V9.35H17v3.32a2.64,2.64,0,1,0,.66,0ZM8,2.75a2,2,0,1,1,2,2A2,2,0,0,1,8,2.75ZM4.74,15.28a2,2,0,1,1-2-2A2,2,0,0,1,4.74,15.28Zm7.26,0a2,2,0,1,1-2-2A2,2,0,0,1,12,15.28Zm5.29,2a2,2,0,1,1,2-2A2,2,0,0,1,17.29,17.26Z"/><path class="cls-1" d="M17.29,18a2.75,2.75,0,0,1-.45-5.47V9.46H10.47v3.1a2.77,2.77,0,1,1-.89,0V9.46H3.21v3.1a2.76,2.76,0,1,1-.9,0v-4H9.58V5.47a2.76,2.76,0,1,1,.89,0v3.1h7.27v4A2.75,2.75,0,0,1,17.29,18Zm-7-8.8h6.83v3.54H17a2.53,2.53,0,1,0,.63,0h-.1v-4H10.24V5.26h.1a2.53,2.53,0,1,0-.63,0h.1V8.8H2.55v4H2.44a2.53,2.53,0,1,0,.63,0H3V9.23H9.81v3.54h-.1a2.53,2.53,0,1,0,.63,0h-.1Zm7,8.15a2.1,2.1,0,1,1,2.1-2.1A2.1,2.1,0,0,1,17.29,17.38Zm0-4a1.86,1.86,0,1,0,1.86,1.86A1.87,1.87,0,0,0,17.29,13.42Zm-7.27,4a2.1,2.1,0,1,1,2.1-2.1A2.11,2.11,0,0,1,10,17.38Zm0-4a1.86,1.86,0,1,0,1.87,1.86A1.86,1.86,0,0,0,10,13.42Zm-7.26,4a2.1,2.1,0,1,1,2.1-2.1A2.1,2.1,0,0,1,2.76,17.38Zm0-4a1.86,1.86,0,1,0,1.86,1.86A1.86,1.86,0,0,0,2.76,13.42ZM10,4.85a2.1,2.1,0,1,1,2.1-2.1A2.11,2.11,0,0,1,10,4.85Zm0-4a1.86,1.86,0,1,0,1.87,1.86A1.87,1.87,0,0,0,10,.89Z"/></svg>