<svg id="Layer_1" data-name="Layer 1" xmlns="http://www.w3.org/2000/svg" width="11" height="10.99" viewBox="0 0 11 10.99"><defs><style>.cls-1,.cls-2{fill:#404041;}.cls-1{stroke:#404041;stroke-miterlimit:10;stroke-width:0.1px;}</style></defs><title>Mondelez_Eropanel_Sprite</title><path class="cls-1" d="M11,5.07v.85a.5.5,0,0,0,0,.12,5.22,5.22,0,0,1-.14.79,5.4,5.4,0,0,1-1.63,2.7,5.33,5.33,0,0,1-2.5,1.3c-.24.05-.49.07-.73.11H5a5.23,5.23,0,0,1-1.16-.25A5.4,5.4,0,0,1,.87,8.37,5.3,5.3,0,0,1,.09,4.9,5.25,5.25,0,0,1,1.8,1.51,5.29,5.29,0,0,1,6,.07,5.3,5.3,0,0,1,9.51,1.81a5.3,5.3,0,0,1,1.34,2.63C10.9,4.65,10.91,4.86,11,5.07Zm-.69.44a4.76,4.76,0,1,0-4.84,4.75A4.76,4.76,0,0,0,10.26,5.51Z"/><path class="cls-2" d="M3.62,8.19a.17.17,0,0,1-.08-.06c-.12-.12-.23-.25-.36-.36s-.05-.11,0-.17L4.73,6.13l.59-.55c.07-.06.06-.1,0-.16l-2.11-2c-.1-.1-.1-.1,0-.2l.33-.35c0-.06.09-.06.15,0L5.62,4.71l.74.7c.07.07.07.11,0,.18L3.71,8.12S3.66,8.18,3.62,8.19Z"/><path class="cls-2" d="M5.74,8.19a.18.18,0,0,1-.07,0l-.35-.37c-.07-.06-.07-.11,0-.17l2-1.91c.21-.19.21-.19,0-.39l-2-1.91c0-.06-.06-.1,0-.15l.37-.39c0-.05.09,0,.14,0L7.33,4.31,8.48,5.4c.1.1.1.1,0,.19L5.85,8.1A.24.24,0,0,1,5.74,8.19Z"/></svg>