<svg id="Layer_1" data-name="Layer 1" xmlns="http://www.w3.org/2000/svg" width="22.77" height="16.69" viewBox="0 0 22.77 16.69"><defs><style>.cls-1{fill:#fff;}</style></defs><title>Mondelez_Eropanel_Sprite</title><path class="cls-1" d="M8.35,16.69A8.35,8.35,0,1,1,15.66,4.31a.38.38,0,0,1-.66.37A7.59,7.59,0,1,0,15,12a.38.38,0,0,1,.66.37A8.36,8.36,0,0,1,8.35,16.69Z"/><path class="cls-1" d="M21.74,8.72H7.13a.38.38,0,0,1,0-.75H21.74a.38.38,0,0,1,0,.75Z"/><path class="cls-1" d="M19,12.51a.39.39,0,0,1-.25-.1.37.37,0,0,1,0-.53l3.2-3.51L18.43,5.1A.37.37,0,0,1,19,4.56l3.71,3.51a.39.39,0,0,1,0,.53l-3.44,3.78A.37.37,0,0,1,19,12.51Z"/></svg>