<svg id="Layer_1" data-name="Layer 1" xmlns="http://www.w3.org/2000/svg" viewBox="0 0 30.49 26.22"><defs><style>.cls-1{fill:#e18719;}</style></defs><title>Mondelez_Eropanel_Sprite</title><path class="cls-1" d="M30.1,22.07,17.59,1.32a2.74,2.74,0,0,0-4.69,0L.39,22.07a2.74,2.74,0,0,0,2.35,4.15h25a2.74,2.74,0,0,0,2.35-4.15Zm-1.69,1.78a.76.76,0,0,1-.66.38h-25a.75.75,0,0,1-.65-1.14L14.6,2.35A.73.73,0,0,1,15.24,2a.75.75,0,0,1,.65.36L28.4,23.09A.76.76,0,0,1,28.41,23.85Z"/><path class="cls-1" d="M15.25,8.17c-.75,0-1.34.4-1.34,1.12,0,2.19.26,5.34.26,7.53,0,.57.49.81,1.08.81s1.07-.24,1.07-.81c0-2.19.26-5.34.26-7.53A1.18,1.18,0,0,0,15.25,8.17Z"/><path class="cls-1" d="M15.27,18.9a1.42,1.42,0,0,0,0,2.84,1.42,1.42,0,0,0,0-2.84Z"/></svg>