<?xml version="1.0" encoding="UTF-8"?><svg id="Layer_1" xmlns="http://www.w3.org/2000/svg" width="16.4" height="14.75" viewBox="0 0 16.4 14.75"><defs><style>.cls-1{fill:#303030;}.cls-2{opacity:.7;}</style></defs><g class="cls-2"><path class="cls-1" d="m7.54,2.75c-1.04.17-1.97.7-2.78,1.59-.81.9-1.22,1.91-1.22,3.03s.41,2.14,1.22,3.03c.81.9,1.74,1.43,2.78,1.59v2.03c-1.69-.17-3.11-.88-4.27-2.16-1.16-1.27-1.73-2.77-1.73-4.5s.58-3.23,1.73-4.5c1.16-1.27,2.58-1.99,4.27-2.16v2.03Zm5.31,3.97c-.15-1-.6-1.88-1.36-2.62-.76-.75-1.64-1.2-2.64-1.34V.72c1.67.17,3.04.79,4.12,1.88,1.08,1.08,1.71,2.46,1.88,4.12h-2Zm-4,5.28c1-.15,1.88-.59,2.64-1.34.76-.75,1.21-1.62,1.36-2.62h2c-.17,1.67-.79,3.05-1.88,4.14-1.08,1.09-2.46,1.71-4.12,1.86v-2.03Z"/></g></svg>