<svg id="Layer_1" data-name="Layer 1" xmlns="http://www.w3.org/2000/svg" viewBox="0 0 10.29 10.29"><defs><style>.cls-1{fill:#303030;}</style></defs><title>Mondelez_Eropanel_Sprite</title><path class="cls-1" d="M5.14,10.29a5.15,5.15,0,1,1,5.15-5.15A5.15,5.15,0,0,1,5.14,10.29Zm0-8.79A3.65,3.65,0,1,0,8.79,5.14,3.64,3.64,0,0,0,5.14,1.5ZM6.37,7.35a.21.21,0,0,1-.31,0l-.92-.92-.91.92a.21.21,0,0,1-.31,0l-1-1a.21.21,0,0,1,0-.31l.92-.92-.92-.91a.21.21,0,0,1,0-.31l1-1a.21.21,0,0,1,.31,0l.91.92.92-.92a.21.21,0,0,1,.31,0l1,1a.21.21,0,0,1,0,.31l-.92.91.92.92a.21.21,0,0,1,0,.31Z"/></svg>