<?xml version="1.0" encoding="UTF-8"?><svg id="Layer_1" xmlns="http://www.w3.org/2000/svg" width="16.4" height="14.75" viewBox="0 0 16.4 14.75"><defs><style>.cls-1{fill:#303030;}</style></defs><path class="cls-1" d="m14.86,7.38c0,.92-.17,1.78-.52,2.58s-.82,1.51-1.44,2.12c-.62.61-1.32,1.09-2.12,1.44-.8.34-1.66.52-2.58.52s-1.78-.17-2.58-.52c-.8-.34-1.51-.82-2.12-1.44-.62-.61-1.09-1.32-1.44-2.12s-.52-1.66-.52-2.58.17-1.78.52-2.59.82-1.52,1.42-2.12l4.72,4.72V.72c.92,0,1.78.17,2.58.52.8.34,1.51.82,2.12,1.44.61.61,1.09,1.32,1.44,2.12s.52,1.66.52,2.58Z"/></svg>