<svg id="Layer_1" data-name="Layer 1" xmlns="http://www.w3.org/2000/svg" viewBox="0 0 18 18"><defs><style>.cls-1{fill:#e18719;}</style></defs><title>Mondelez_Eropanel_Login</title><path class="cls-1" d="M9,18c-.25,0-.49,0-.73,0s-.58-.06-.81-.1a9.3,9.3,0,0,1-2.24-.7c-.25-.12-.46-.23-.66-.35l-.12-.07c-.18-.1-.36-.22-.54-.34l-.16-.11-.48-.37-.46-.38,0,0a9,9,0,1,1,12.35,0h0l-.11.11-.3.24-.51.4-.18.12a5.69,5.69,0,0,1-.52.33l-.14.08c-.2.11-.39.22-.6.31a8.93,8.93,0,0,1-2.22.71c-.29.05-.53.08-.77.1S9.25,18,9,18ZM4.72,15.85a5.5,5.5,0,0,0,.48.28,6.39,6.39,0,0,0,.61.29,4.24,4.24,0,0,0,.59.23A7.38,7.38,0,0,0,7.67,17c.22,0,.42.06.63.08l.7,0,.59,0,.7-.08.64-.13a6.13,6.13,0,0,0,.61-.18,6.84,6.84,0,0,0,1.14-.48c.26-.13.42-.22.57-.31l.41-.28-2.58-1.29A1.49,1.49,0,0,1,10.26,13V11.72l.11-.13.23-.29a5.88,5.88,0,0,0,.78-1.59l.06-.16.25-.14A.4.4,0,0,0,12,9V7.89a.41.41,0,0,0-.13-.29l-.11-.09,0-1.94a1.88,1.88,0,0,0-.43-1.32A2.89,2.89,0,0,0,9,3.5a2.91,2.91,0,0,0-2.27.75,1.79,1.79,0,0,0-.42,1.3V7.4l-.16.2A.41.41,0,0,0,6,7.89V9a.39.39,0,0,0,.19.33l0,0,.13.13a5.3,5.3,0,0,0,1,2.07l0,0,.08.14v1.16a1.51,1.51,0,0,1-.78,1.32l-2.4,1.3.3.2.07.21ZM9,2.58a3.75,3.75,0,0,1,3,1.07,2.75,2.75,0,0,1,.64,2V7.13a1.06,1.06,0,0,1,.29.76V9a1.3,1.3,0,0,1-.75,1.18,5.23,5.23,0,0,1-.79,1.61l-.21.27,0,.87a.6.6,0,0,0,.32.52l2.73,1.36.22.12a8.08,8.08,0,1,0-10.92,0l.17-.1,2.55-1.39a.57.57,0,0,0,.3-.51V12a5.31,5.31,0,0,1-1-2A1.16,1.16,0,0,1,5.11,9V7.89A1.34,1.34,0,0,1,5.43,7l0-1.41a2.68,2.68,0,0,1,.64-2A3.75,3.75,0,0,1,9,2.58Z"/></svg>