<?xml version="1.0" encoding="UTF-8"?><svg id="Layer_1" xmlns="http://www.w3.org/2000/svg" width="10.29" height="10.29" viewBox="0 0 10.29 10.29"><defs><style>.cls-1{fill:#e18719;}</style></defs><path class="cls-1" d="M5.14,10.29C2.3,10.29,0,7.98,0,5.14S2.3,0,5.14,0s5.14,2.3,5.14,5.14-2.3,5.14-5.14,5.14ZM5.14,1.5c-2.01,0-3.64,1.63-3.64,3.64s1.63,3.64,3.64,3.64,3.64-1.63,3.64-3.64-1.63-3.64-3.64-3.64Zm-.13,5.92c-.17,.17-.44,.17-.6,0l-1.97-1.97c-.17-.17-.17-.43,0-.6l.68-.68c.17-.17,.44-.17,.6,0l.98,.99,1.84-1.84c.17-.17,.44-.17,.6,0l.68,.68c.17,.17,.17,.44,0,.6l-2.83,2.83Z"/></svg>