<?xml version="1.0" encoding="UTF-8"?><svg id="Layer_1" xmlns="http://www.w3.org/2000/svg" width="20.41" height="8.75" viewBox="0 0 20.41 8.75"><defs><style>.cls-1{fill:#404041;}.cls-2{opacity:.7;}</style></defs><g class="cls-2"><path class="cls-1" d="M19.47,8.75h-6.88c-.26,0-.48-.09-.66-.27s-.27-.4-.27-.66V.94c0-.26,.09-.48,.27-.66,.18-.18,.4-.27,.66-.27h6.88c.26,0,.48,.09,.66,.27,.18,.18,.27,.4,.27,.66V7.81c0,.26-.09,.48-.27,.66s-.4,.27-.66,.27Zm-4-1.91l3.59-3.59c.07-.06,.1-.14,.1-.22s-.03-.16-.1-.22l-.43-.43c-.07-.06-.14-.1-.22-.1s-.16,.03-.22,.1l-2.93,2.93-1.37-1.37c-.07-.06-.14-.1-.22-.1s-.16,.03-.22,.1l-.43,.43c-.07,.07-.1,.14-.1,.22s.03,.16,.1,.22l2.03,2.03c.05,.07,.12,.1,.21,.1s.16-.03,.21-.1Z"/></g><path class="cls-1" d="M8.48,.27c.18,.18,.27,.4,.27,.66V7.81c0,.26-.09,.48-.27,.66-.18,.18-.4,.27-.66,.27H.94c-.26,0-.48-.09-.66-.27-.18-.18-.27-.4-.27-.66V.94C0,.68,.09,.46,.27,.27c.18-.18,.4-.27,.66-.27H7.81c.26,0,.48,.09,.66,.27Z"/></svg>