<?xml version="1.0" encoding="UTF-8"?><svg id="Layer_1" xmlns="http://www.w3.org/2000/svg" width="20" height="12" viewBox="0 0 20 12"><defs><style>.cls-1{fill:#fff;}.cls-2{fill:#e18719;}</style></defs><rect class="cls-2" x="3.26" y="4.22" width="16.74" height="3.71" rx="1.85" ry="1.85"/><g><ellipse class="cls-2" cx="5.75" cy="6" rx="5.25" ry="5.28"/><path class="cls-2" d="M5.75,11.78C2.58,11.78,0,9.19,0,6S2.58,.22,5.75,.22s5.75,2.59,5.75,5.78-2.58,5.78-5.75,5.78ZM5.75,1.22C3.13,1.22,.99,3.36,.99,6s2.13,4.78,4.75,4.78,4.75-2.14,4.75-4.78S8.37,1.22,5.75,1.22Z"/></g><g><ellipse class="cls-2" cx="5.75" cy="6.1" rx="4.62" ry="4.65"/><path class="cls-1" d="M5.75,11.25C2.92,11.25,.63,8.94,.63,6.1S2.92,.95,5.75,.95s5.12,2.31,5.12,5.15-2.3,5.15-5.12,5.15ZM5.75,1.95C3.47,1.95,1.62,3.81,1.62,6.1s1.85,4.15,4.13,4.15,4.13-1.86,4.13-4.15S8.02,1.95,5.75,1.95Z"/></g></svg>