<?xml version="1.0" encoding="UTF-8"?><svg xmlns="http://www.w3.org/2000/svg" width="37.5" height="37.5" xmlns:xlink="http://www.w3.org/1999/xlink" viewBox="0 0 37.5 37.5"><defs><style>.cls-1{fill:#fff;}.cls-2{fill:#aaa;}.cls-3,.cls-4{opacity:.3;}.cls-5{isolation:isolate;}.cls-4{mix-blend-mode:multiply;}.cls-6{filter:url(#drop-shadow-12);}</style><filter id="drop-shadow-12" filterUnits="userSpaceOnUse"><feOffset dx="0" dy="0"/><feGaussianBlur result="blur" stdDeviation="1.38"/><feFlood flood-color="#231f20" flood-opacity=".4"/><feComposite in2="blur" operator="in"/><feComposite in="SourceGraphic"/></filter></defs><g class="cls-5"><g id="Layer_1"><g><g class="cls-3"><rect class="cls-2" x="0" y="0" width="37.5" height="37.5" rx="18.75" ry="18.75"/><g class="cls-4"><path d="M18.75,1.3c9.62,0,17.45,7.83,17.45,17.45s-7.83,17.45-17.45,17.45S1.3,28.37,1.3,18.75,9.13,1.3,18.75,1.3M18.75,0h0C8.39,0,0,8.39,0,18.75s8.39,18.75,18.75,18.75h0c10.36,0,18.75-8.39,18.75-18.75S29.11,0,18.75,0h0Z"/></g></g><g class="cls-6"><path class="cls-1" d="M28.42,10.8h-7.28v2.38h2.41v1.61h-2.41v1.58h2.38v1.59h-2.38v1.59h2.38v1.59h-2.38v1.59h2.38v1.59h-2.38v2.38h7.28c.37,0,.67-.31,.67-.69V11.49c0-.38-.3-.7-.67-.7h0Zm-.92,13.52h-3.18v-1.59h3.18v1.59Zm0-3.18h-3.18v-1.59h3.18v1.59Zm0-3.18h-3.18v-1.59h3.18v1.59Zm0-3.18h-3.18v-1.59h3.18v1.59Zm0,0"/><path class="cls-1" d="M8.41,10.71V26.79l11.93,2.3V8.41l-11.93,2.3Zm7.54,12.08l-1.39-2.62c-.05-.1-.11-.28-.16-.54h-.02c-.03,.12-.09,.31-.19,.56l-1.39,2.6h-2.16l2.57-4.03-2.35-4.03h2.21l1.15,2.41c.09,.19,.17,.42,.24,.68h.02c.05-.16,.13-.39,.25-.7l1.28-2.39h2.02l-2.41,3.99,2.48,4.06h-2.15Zm0,0"/></g></g></g></g></svg>