<?xml version="1.0" encoding="UTF-8"?><svg id="Layer_1" xmlns="http://www.w3.org/2000/svg" width="13" height="13" viewBox="0 0 13 13"><defs><style>.cls-1{fill:#303030;}.cls-2{opacity:.7;}</style></defs><g class="cls-2"><path class="cls-1" d="M13,12c0,.28-.1,.51-.29,.71s-.43,.29-.71,.29-.52-.1-.7-.3l-2.68-2.67c-.93,.65-1.97,.97-3.12,.97-.75,0-1.46-.14-2.14-.43s-1.27-.68-1.76-1.17-.88-1.08-1.17-1.76-.43-1.39-.43-2.14,.14-1.46,.43-2.14,.68-1.27,1.17-1.76S2.68,.72,3.36,.43s1.39-.43,2.14-.43,1.46,.14,2.14,.43,1.27,.68,1.76,1.17,.88,1.08,1.17,1.76,.43,1.39,.43,2.14c0,1.15-.32,2.18-.97,3.12l2.68,2.68c.19,.19,.29,.43,.29,.7ZM7.97,7.97c.68-.68,1.03-1.51,1.03-2.47s-.34-1.79-1.03-2.47-1.51-1.03-2.47-1.03-1.79,.34-2.47,1.03-1.03,1.51-1.03,2.47,.34,1.79,1.03,2.47,1.51,1.03,2.47,1.03,1.79-.34,2.47-1.03Zm.03-2.72v.5c0,.07-.02,.13-.07,.18s-.11,.07-.18,.07h-1.75v1.75c0,.07-.02,.13-.07,.18s-.11,.07-.18,.07h-.5c-.07,0-.13-.02-.18-.07s-.07-.11-.07-.18v-1.75h-1.75c-.07,0-.13-.02-.18-.07s-.07-.11-.07-.18v-.5c0-.07,.02-.13,.07-.18s.11-.07,.18-.07h1.75v-1.75c0-.07,.02-.13,.07-.18s.11-.07,.18-.07h.5c.07,0,.13,.02,.18,.07s.07,.11,.07,.18v1.75h1.75c.07,0,.13,.02,.18,.07s.07,.11,.07,.18Z"/></g></svg>