<?xml version="1.0" encoding="UTF-8"?><svg id="Layer_1" xmlns="http://www.w3.org/2000/svg" width="16" height="5.71" viewBox="0 0 16 5.71"><defs><style>.cls-1{fill:#303030;}.cls-2{opacity:.7;}</style></defs><g class="cls-2"><path class="cls-1" d="M16,2.86c0,.15-.06,.29-.17,.4l-2.29,2.29c-.11,.11-.25,.17-.4,.17s-.29-.06-.4-.17-.17-.25-.17-.4v-1.14H3.43v1.14c0,.16-.06,.29-.17,.4s-.25,.17-.4,.17-.29-.06-.4-.17L.17,3.26c-.11-.11-.17-.25-.17-.4s.06-.29,.17-.4L2.46,.17c.11-.11,.25-.17,.4-.17s.29,.06,.4,.17,.17,.25,.17,.4V1.71H12.57V.57c0-.15,.06-.29,.17-.4s.25-.17,.4-.17,.29,.06,.4,.17l2.29,2.29c.11,.11,.17,.25,.17,.4Z"/></g></svg>