<svg id="Layer_1" data-name="Layer 1" xmlns="http://www.w3.org/2000/svg" viewBox="0 0 13.29 14"><defs><style>.cls-1{fill:#4f2170;}</style></defs><title>Mondelez_Eropanel_Sprite</title><path class="cls-1" d="M12.52,4.26c-.16.31-.35.63-.54.94l-.08.12-.5.73c.64.4,1,.86,1,1.31S11.83,8.5,10.84,9a7.3,7.3,0,0,1-1.06.38,15.33,15.33,0,0,0,.14-1.56l-.12,0a.49.49,0,0,1-.34-.15L9,7.13v.23a12,12,0,0,1-.19,2.2,12.87,12.87,0,0,1-2.2.19,13,13,0,0,1-2.2-.19,12.83,12.83,0,0,1,0-4.4A12,12,0,0,1,6.64,5l.85,0A10.26,10.26,0,0,1,7,4.08H6.64a14.09,14.09,0,0,0-2,.14A7.3,7.3,0,0,1,5,3.16c.46-1,1-1.56,1.6-1.56h0A3,3,0,0,1,7.09.73l-.45,0h0A6.65,6.65,0,0,0,6.64,14h0a6.64,6.64,0,0,0,5.88-9.74ZM4.71,1.93a5.35,5.35,0,0,0-.47.86,8.1,8.1,0,0,0-.55,1.62A8.68,8.68,0,0,0,2.08,5a4.69,4.69,0,0,0-.86.48,5.79,5.79,0,0,1,3.49-3.5ZM2.44,5.76a7.91,7.91,0,0,1,1.07-.39,13.21,13.21,0,0,0,0,4A7.9,7.9,0,0,1,2.44,9c-1-.46-1.55-1-1.55-1.6s.57-1.15,1.55-1.6ZM1.22,9.29a5.35,5.35,0,0,0,.86.47,8,8,0,0,0,1.61.55,8,8,0,0,0,.55,1.61,5.35,5.35,0,0,0,.47.86A5.8,5.8,0,0,1,1.22,9.29Zm5.42,3.82h0c-.56,0-1.14-.57-1.6-1.55a7.9,7.9,0,0,1-.38-1.07,12.72,12.72,0,0,0,2,.15,12.75,12.75,0,0,0,2-.15,7.91,7.91,0,0,1-.39,1.07c-.45,1-1,1.55-1.6,1.55Zm1.93-.33a4.69,4.69,0,0,0,.48-.86,8.68,8.68,0,0,0,.54-1.61,8.1,8.1,0,0,0,1.62-.55,5.35,5.35,0,0,0,.86-.47,5.79,5.79,0,0,1-3.5,3.49Zm0,0"/><path class="cls-1" d="M9.81,6.87a.16.16,0,0,0,.11,0c.41-.5,2.45-3.05,2.45-4.27a2.56,2.56,0,0,0-5.11,0c0,1.22,2,3.77,2.45,4.27a.14.14,0,0,0,.1,0ZM8.44,2.41A1.38,1.38,0,1,1,9.81,3.78,1.37,1.37,0,0,1,8.44,2.41Zm0,0"/></svg>