<svg id="Layer_1" data-name="Layer 1" xmlns="http://www.w3.org/2000/svg" viewBox="0 0 10.99 11"><defs><style>.cls-1,.cls-2{fill:#e18719;}.cls-1{stroke:#e18719;stroke-miterlimit:10;stroke-width:0.1px;}</style></defs><title>Mondelez_Eropanel_Sprite</title><path class="cls-1" d="M5.92,11H5.07l-.11,0a5.42,5.42,0,0,1-3.5-1.77A5.41,5.41,0,0,1,.17,6.66C.11,6.42.09,6.17.05,5.93V5.08A.43.43,0,0,0,.07,5,5.83,5.83,0,0,1,.31,3.81,5.45,5.45,0,0,1,2.62.87,5.31,5.31,0,0,1,6.09.09,5.22,5.22,0,0,1,9.48,1.8,5.26,5.26,0,0,1,10.92,6,5.29,5.29,0,0,1,9.19,9.51a5.33,5.33,0,0,1-2.64,1.34C6.34,10.9,6.13,10.91,5.92,11Zm-.43-.69A4.76,4.76,0,1,0,.74,5.42,4.75,4.75,0,0,0,5.49,10.26Z"/><path class="cls-2" d="M2.81,3.62s0-.06,0-.08.25-.23.37-.36.11-.05.16,0L4.86,4.73c.18.2.37.39.56.59s.09.06.16,0c.66-.71,1.34-1.41,2-2.11.09-.1.09-.1.19,0l.35.33c.07,0,.06.09,0,.15L6.29,5.62l-.71.74c-.06.07-.1.07-.17,0L2.88,3.71S2.82,3.66,2.81,3.62Z"/><path class="cls-2" d="M2.81,5.74s0,0,0-.07l.37-.35c.07-.07.11-.07.17,0C4,6,4.67,6.65,5.3,7.32c.2.21.19.21.39,0l1.92-2a.09.09,0,0,1,.15,0c.12.13.25.25.38.37s0,.09,0,.14c-.49.51-1,1-1.46,1.52S6,8.1,5.59,8.48c-.09.1-.1.1-.19,0L2.89,5.85A.23.23,0,0,1,2.81,5.74Z"/></svg>