<svg xmlns="http://www.w3.org/2000/svg" viewBox="0 0 13.64 18.83"><defs><style>.cls-1{isolation:isolate;}.cls-2{fill:#e18719;}.cls-3{opacity:0.3;mix-blend-mode:multiply;}</style></defs><title>Mondelez_Eropanel_Sprite</title><g class="cls-1"><g id="Layer_1" data-name="Layer 1"><path class="cls-2" d="M6.82,0A6.83,6.83,0,0,0,0,6.82c0,4.67,6.1,11.52,6.36,11.81a.62.62,0,0,0,.92,0c.26-.29,6.36-7.14,6.36-11.81A6.83,6.83,0,0,0,6.82,0Zm0,10.25a3.43,3.43,0,1,1,3.43-3.43A3.44,3.44,0,0,1,6.82,10.25Z"/><g class="cls-3"><path d="M6.82.75a6.07,6.07,0,0,1,6.07,6.07C12.89,10.27,9,15.58,6.82,18,4.66,15.58.75,10.27.75,6.82A6.07,6.07,0,0,1,6.82.75M6.82,11A4.18,4.18,0,1,0,2.64,6.82,4.19,4.19,0,0,0,6.82,11m0-11A6.83,6.83,0,0,0,0,6.82c0,4.67,6.1,11.52,6.36,11.81a.63.63,0,0,0,.46.2.65.65,0,0,0,.46-.2c.26-.29,6.36-7.14,6.36-11.81A6.83,6.83,0,0,0,6.82,0Zm0,10.25a3.43,3.43,0,1,1,3.43-3.43,3.44,3.44,0,0,1-3.43,3.43Z"/></g></g></g></svg>