<svg id="Layer_1" data-name="Layer 1" xmlns="http://www.w3.org/2000/svg" viewBox="0 0 9.88 11.56"><defs><style>.cls-1{fill:#fff;stroke:#fff;stroke-miterlimit:10;stroke-width:0.22px;}</style></defs><title>Mondelez_Eropanel_Sprite</title><path class="cls-1" d="M.11,5.77V.91a.71.71,0,0,1,.8-.8H9a.71.71,0,0,1,.79.78v9.76a.71.71,0,0,1-.8.8H.88a.7.7,0,0,1-.77-.77Zm.47,0v4.85c0,.31.06.36.36.36H9c.26,0,.32-.07.32-.33V.92C9.29.65,9.23.58,9,.58h-8C.64.58.58.64.58.93Z"/><path class="cls-1" d="M5,1.32H8.13c.27,0,.33.06.33.33V3.51c0,.23-.07.31-.31.31H1.72c-.23,0-.3-.08-.3-.31q0-.94,0-1.89c0-.23.07-.3.3-.3Zm-3.05,2H8V1.8H1.9Z"/><path class="cls-1" d="M3.14,6v.68c0,.18-.08.26-.27.27H1.68c-.18,0-.27-.08-.27-.26V5.29A.24.24,0,0,1,1.68,5H2.87c.19,0,.27.09.27.28ZM2.66,5.5H1.89v1h.77Z"/><path class="cls-1" d="M4.07,6V5.29c0-.18.09-.27.27-.27H5.55c.17,0,.25.09.25.26v1.4a.22.22,0,0,1-.25.25q-.62,0-1.23,0a.21.21,0,0,1-.24-.24C4.07,6.45,4.07,6.22,4.07,6Zm.49-.48v1h.76v-1Z"/><path class="cls-1" d="M3.14,9.29V10c0,.18-.08.26-.26.27H1.67A.23.23,0,0,1,1.41,10V8.59c0-.17.09-.25.25-.25H2.9a.22.22,0,0,1,.24.25Zm-.48-.48H1.89v.95h.77Z"/><path class="cls-1" d="M5.8,9.3V10c0,.18-.08.26-.27.27H4.34A.25.25,0,0,1,4.07,10V8.61a.25.25,0,0,1,.28-.28H5.54c.18,0,.26.09.26.27ZM4.56,8.82v.94h.76V8.82Z"/><path class="cls-1" d="M6.69,6c0-.23,0-.46,0-.69S6.77,5,7,5H8.16c.17,0,.25.09.25.26,0,.47,0,.93,0,1.4a.22.22,0,0,1-.25.25c-.41,0-.82,0-1.22,0a.22.22,0,0,1-.25-.24C6.68,6.45,6.69,6.22,6.69,6Zm.48-.48v1h.77v-1Z"/><path class="cls-1" d="M8.42,9.3V10c0,.18-.09.26-.28.27H7c-.18,0-.26-.09-.26-.27V8.61c0-.19.08-.27.27-.28H8.15a.25.25,0,0,1,.27.27ZM7.17,8.82v.94h.77V8.82Z"/></svg>