<svg id="Layer_1" data-name="Layer 1" xmlns="http://www.w3.org/2000/svg" viewBox="0 0 13.64 15.96"><defs><style>.cls-1{fill:#fff;stroke:#fff;stroke-miterlimit:10;stroke-width:0.3px;}</style></defs><title>Mondelez_Eropanel_Sprite</title><path class="cls-1" d="M.15,8V1.25A1,1,0,0,1,1.26.15H12.4a1,1,0,0,1,1.09,1.08V14.7a1,1,0,0,1-1.11,1.11H1.21A1,1,0,0,1,.15,14.74ZM.8,8v6.68c0,.43.08.5.5.5H12.38c.37,0,.46-.09.46-.46V1.26c0-.37-.09-.46-.46-.46H1.28C.88.8.8.88.8,1.28Z"/><path class="cls-1" d="M6.83,1.82h4.4c.37,0,.45.09.45.45,0,.86,0,1.71,0,2.57,0,.32-.1.43-.42.43H2.38c-.32,0-.43-.11-.43-.43V2.23c0-.31.11-.41.42-.41ZM2.62,4.6H11V2.48H2.62Z"/><path class="cls-1" d="M4.34,8.26V9.2c0,.26-.12.37-.38.37H2.32A.32.32,0,0,1,2,9.21V7.3a.32.32,0,0,1,.37-.37H4c.25,0,.37.12.37.38ZM3.68,7.6H2.62V8.9H3.68Z"/><path class="cls-1" d="M5.63,8.25c0-.32,0-.63,0-1s.11-.37.36-.37H7.66A.32.32,0,0,1,8,7.29c0,.64,0,1.28,0,1.93a.31.31,0,0,1-.35.35H6a.31.31,0,0,1-.34-.34C5.62,8.9,5.63,8.58,5.63,8.25Zm.66-.66V8.91H7.35V7.59Z"/><path class="cls-1" d="M4.34,12.82v.95a.32.32,0,0,1-.36.37H2.31A.32.32,0,0,1,2,13.79V11.85a.32.32,0,0,1,.34-.35H4a.31.31,0,0,1,.33.36Zm-.66-.66H2.62v1.31H3.68Z"/><path class="cls-1" d="M8,12.83c0,.31,0,.62,0,.94s-.11.37-.37.37H6c-.25,0-.36-.12-.36-.37q0-.94,0-1.89c0-.26.11-.38.37-.38H7.65c.25,0,.36.12.36.37S8,12.51,8,12.83Zm-1.72-.67v1.31H7.35V12.16Z"/><path class="cls-1" d="M9.24,8.25c0-.32,0-.63,0-1s.11-.37.36-.37h1.67a.32.32,0,0,1,.35.36V9.22a.31.31,0,0,1-.35.35H9.58a.31.31,0,0,1-.34-.34C9.23,8.9,9.24,8.58,9.24,8.25Zm.66-.66V8.91H11V7.59Z"/><path class="cls-1" d="M11.62,12.83c0,.31,0,.62,0,.94s-.11.37-.37.37H9.6c-.25,0-.36-.12-.36-.37q0-.94,0-1.89c0-.26.11-.38.37-.38h1.65c.25,0,.36.12.36.37S11.62,12.51,11.62,12.83ZM9.9,12.16v1.31H11V12.16Z"/></svg>