<svg id="Layer_1" data-name="Layer 1" xmlns="http://www.w3.org/2000/svg" viewBox="0 0 17.02 17.01"><defs><style>.cls-1{fill:#fff;}.cls-2{fill:none;stroke:#fff;stroke-miterlimit:10;}</style></defs><title>Mondelez_Eropanel_Sprite</title><path class="cls-1" d="M.43,17A.69.69,0,0,1,0,16.28C0,11.07,0,5.86,0,.64a.57.57,0,1,1,1.14,0V15.88H16.38a.58.58,0,0,1,.62.46.56.56,0,0,1-.37.64l0,0Z"/><path class="cls-2" d="M2.47,13.29S9,9.52,5.39,2.37"/><polygon class="cls-1" points="8.25 3.15 8.03 3.68 5.44 2.59 4.54 5.26 4 5.07 5.09 1.83 8.25 3.15"/><path class="cls-2" d="M5.52,15.34S7.15,8,15.06,9.3"/><polygon class="cls-1" points="12.9 11.43 12.56 10.96 14.84 9.32 13.03 7.17 13.47 6.8 15.67 9.42 12.9 11.43"/></svg>