<svg id="Layer_1" data-name="Layer 1" xmlns="http://www.w3.org/2000/svg" viewBox="0 0 14.68 14"><defs><style>.cls-1{fill:#4f2170;}</style></defs><title>Mondelez_Eropanel_Sprite</title><path class="cls-1" d="M14.45,5.85,11.25,9,12,13.38v.18c0,.23-.1.44-.36.44a.66.66,0,0,1-.35-.11l-4-2.08-4,2.08A.68.68,0,0,1,3,14c-.26,0-.37-.21-.37-.44a1.09,1.09,0,0,1,0-.18L3.43,9,.22,5.85A.69.69,0,0,1,0,5.43C0,5.16.27,5.05.49,5l4.43-.64,2-4C7,.19,7.14,0,7.34,0s.35.19.43.36l2,4L14.19,5c.21,0,.49.14.49.41A.71.71,0,0,1,14.45,5.85Z"/></svg>