<svg id="Layer_1" data-name="Layer 1" xmlns="http://www.w3.org/2000/svg" viewBox="0 0 17.93 15.37"><defs><style>.cls-1{fill:#c2337a;}</style></defs><title>Mondelez_Eropanel_Sprite</title><circle class="cls-1" cx="8.96" cy="11.91" r="0.83"/><path class="cls-1" d="M8.85,9.76a.47.47,0,0,0,.46-.46V5a.46.46,0,0,0-.46-.45A.45.45,0,0,0,8.4,5V9.3A.46.46,0,0,0,8.85,9.76Z"/><path class="cls-1" d="M10.63,1.36l0,0C10.18.67,9.75,0,9,0S7.72.68,7.31,1.34l0,0L.06,13.62A.3.3,0,0,0,0,13.8a1.57,1.57,0,0,0,1.59,1.57H16.33a1.57,1.57,0,0,0,1.6-1.57.33.33,0,0,0-.07-.21Zm5.7,13.1H1.59a.66.66,0,0,1-.67-.55L8.08,1.81C8.44,1.24,8.67.9,9,.9s.56.43.88.92L17,13.91A.67.67,0,0,1,16.33,14.46Z"/></svg>