<svg id="Layer_1" data-name="Layer 1" xmlns="http://www.w3.org/2000/svg" viewBox="0 0 20.43 20.43"><defs><style>.cls-1{fill:#636363;}.cls-2{fill:#fcfcfc;}</style></defs><title>Mondelez_Eropanel_Sprite</title><circle class="cls-1" cx="10.21" cy="10.21" r="10.21"/><path class="cls-2" d="M10.19,11.09H5.73c-.28,0-.28,0-.28-.28s0-.82,0-1.22c0-.2.06-.26.26-.26h9.07c.16,0,.22.06.21.22,0,.43,0,.86,0,1.3,0,.18-.05.25-.24.24Z"/><path class="cls-2" d="M9.22,6.71c0-.28,0-.55,0-.83s.06-.2.2-.2c.55,0,1.11,0,1.67,0,.14,0,.19.07.19.21V7.54c0,.15-.06.21-.21.21H9.44c-.18,0-.23-.07-.22-.24s0-.53,0-.8Z"/><path class="cls-2" d="M10.27,12.68h.81c.14,0,.2.05.2.19v1.67c0,.15-.06.2-.2.2H9.41c-.15,0-.19-.06-.19-.2V12.89c0-.16.06-.21.21-.21Z"/></svg>