<svg id="Layer_1" data-name="Layer 1" xmlns="http://www.w3.org/2000/svg" viewBox="0 0 21.33 15.97"><defs><style>.cls-1{fill:#4f2170;}</style></defs><title>Mondelez_Eropanel_Sprite</title><path class="cls-1" d="M.36,16a.43.43,0,0,1,0-.84H1.51V9.87a.39.39,0,0,1,.36-.41H4.38a.39.39,0,0,1,.36.41v5.26H6.53V4.2a.39.39,0,0,1,.36-.42H9.41a.39.39,0,0,1,.36.42V15.13h1.79V7a.39.39,0,0,1,.36-.42h2.51a.39.39,0,0,1,.36.42v8.09h1.79V.42A.39.39,0,0,1,16.94,0h2.52a.39.39,0,0,1,.36.42V15.13H21A.42.42,0,0,1,21,16Z"/><rect class="cls-1" x="12.28" y="7.45" width="1.79" height="7.68"/><rect class="cls-1" x="7.26" y="4.61" width="1.79" height="10.52"/><rect class="cls-1" x="2.23" y="10.29" width="1.79" height="4.84"/><rect class="cls-1" x="17.31" y="0.83" width="1.79" height="14.3"/></svg>