<svg id="Layer_1" data-name="Layer 1" xmlns="http://www.w3.org/2000/svg" viewBox="0 0 15.47 15.79"><defs><style>.cls-1{fill:#5d5d5d;}</style></defs><title>Mondelez_Eropanel_Sprite</title><path class="cls-1" d="M12.7,0H0V15.79H15.47v-13ZM11.28.64V5.16H3.55V.64ZM2.9,15.15V9h9.35v6.13Zm11.93,0H12.89V8.38H2.26v6.77H.64V.64H2.9V5.8h9V.64h.52L14.83,3Z"/><path class="cls-1" d="M4.19,10.64H6.45a.33.33,0,0,0,.32-.33A.32.32,0,0,0,6.45,10H4.19a.32.32,0,0,0-.32.32A.32.32,0,0,0,4.19,10.64Z"/><path class="cls-1" d="M7.41,11.28H4.19a.32.32,0,1,0,0,.64H7.41a.32.32,0,0,0,0-.64Z"/><path class="cls-1" d="M8.15,11.37a.33.33,0,0,0-.09.23.31.31,0,0,0,.32.32.33.33,0,0,0,.23-.09.32.32,0,0,0,.09-.23.33.33,0,0,0-.09-.23A.34.34,0,0,0,8.15,11.37Z"/><path class="cls-1" d="M10.64,1.29H8.7V4.51h1.94ZM10,3.87H9.35V1.93H10Z"/></svg>