<svg id="Layer_1" data-name="Layer 1" xmlns="http://www.w3.org/2000/svg" viewBox="0 0 16.69 16.69"><defs><style>.cls-1{fill:#4f2170;}</style></defs><title>Mondelez_Eropanel_Sprite</title><path class="cls-1" d="M8.34,16.69a8.35,8.35,0,1,1,8.35-8.34A8.35,8.35,0,0,1,8.34,16.69ZM8.34.75a7.6,7.6,0,1,0,7.6,7.6A7.61,7.61,0,0,0,8.34.75Z"/><path class="cls-1" d="M5.13,6.67c0-1.78,1.52-2.57,3.21-2.57s3.25.73,3.21,2.53S10,8.55,9.26,9a1.19,1.19,0,0,0-.46,1.11v.06H7.22v-.07A2.19,2.19,0,0,1,8.54,7.77c.64-.33,1.37-.43,1.37-1.15,0-.92-.85-1.14-1.6-1.14s-1.56.43-1.57,1.19Zm3.83,5a1,1,0,0,1-1.92,0A1,1,0,1,1,9,11.65Z"/></svg>