<svg xmlns="http://www.w3.org/2000/svg" viewBox="0 0 22.4 22.4"><defs><style>.cls-1{isolation:isolate;}.cls-2{fill:#f2f2f2;}.cls-3{fill:#2d6daa;}.cls-4{opacity:0.4;}.cls-4,.cls-6{mix-blend-mode:multiply;}.cls-5,.cls-7{fill:#fff;}.cls-5,.cls-6{opacity:0.5;}.cls-6{fill:#231f20;}</style></defs><title>Mondelez_Eropanel_Sprite</title><g class="cls-1"><g id="Layer_1" data-name="Layer 1"><circle class="cls-2" cx="11.2" cy="11.2" r="11.2"/><circle class="cls-3" cx="11.2" cy="11.2" r="7.88"/><g class="cls-4"><path class="cls-3" d="M11.2,4.32A6.88,6.88,0,1,1,4.32,11.2,6.89,6.89,0,0,1,11.2,4.32m0-1a7.88,7.88,0,1,0,7.88,7.88A7.88,7.88,0,0,0,11.2,3.32Z"/></g><path class="cls-5" d="M11.2,5.16a6.91,6.91,0,0,1,6.88,6.49c0-.15.05-.29.05-.45a6.93,6.93,0,0,0-13.86,0c0,.16,0,.3,0,.45A6.91,6.91,0,0,1,11.2,5.16Z"/><circle class="cls-6" cx="11.43" cy="12.19" r="2.92"/><circle class="cls-7" cx="11.2" cy="11.2" r="2.92"/></g></g></svg>