<svg id="Layer_1" data-name="Layer 1" xmlns="http://www.w3.org/2000/svg" viewBox="0 0 13.18 14"><defs><style>.cls-1{fill:#4f2170;}</style></defs><title>Mondelez_Eropanel_Sprite</title><path class="cls-1" d="M.15,3.55l6.32,3a.24.24,0,0,0,.23,0l6.32-3a.26.26,0,0,0,0-.48L6.7,0a.24.24,0,0,0-.23,0l-6.32,3a.27.27,0,0,0,0,.48Zm0,0"/><path class="cls-1" d="M.15,7.24l6.32,3a.24.24,0,0,0,.23,0l6.32-3a.26.26,0,0,0,0-.48l-1.33-.64-4.23,2a2.09,2.09,0,0,1-1.74,0l-4.23-2L.15,6.76a.27.27,0,0,0,0,.48Zm0,0"/><path class="cls-1" d="M13,10.45l-1.33-.64-4.23,2a2.09,2.09,0,0,1-1.74,0l-4.23-2-1.34.64a.27.27,0,0,0,0,.48l6.32,3a.24.24,0,0,0,.23,0l6.32-3a.26.26,0,0,0,0-.48Zm0,0"/></svg>