<svg id="Layer_1" data-name="Layer 1" xmlns="http://www.w3.org/2000/svg" viewBox="0 0 15.06 11.55"><title>Mondelez_Eropanel_Sprite</title><path d="M15.06,11.39a.41.41,0,0,1-.38.16H.39c-.33,0-.39-.06-.39-.4V.38C0,.07.07,0,.38,0h14.3a.39.39,0,0,1,.38.16Zm-.5-8.87H.51V9H14.56ZM5,2h5V.51H5Zm5,7.55H5V11h5ZM.51.51V2h4V.51Zm14.05,0h-4V2h4ZM.5,11h4V9.55H.5ZM10.55,9.55V11h4V9.55Z"/><path d="M5.52,5.87V4.37c0-.27.17-.38.42-.27l3.5,1.52a.48.48,0,0,1,.21.19c.07.13,0,.25-.19.33l-2.27,1-1.26.55c-.25.11-.41,0-.41-.28ZM6,7.08,8.8,5.88,6,4.68Z"/></svg>