<svg id="Layer_1" data-name="Layer 1" xmlns="http://www.w3.org/2000/svg" viewBox="0 0 12.58 12.58"><defs><style>.cls-1{fill:#515151;}</style></defs><title>Mondelez_Eropanel_Sprite</title><path class="cls-1" d="M6.29,0A6.29,6.29,0,1,1,0,6.41,6.3,6.3,0,0,1,6.29,0Zm0,1.21A5.08,5.08,0,1,0,11.37,6.4,5.09,5.09,0,0,0,6.31,1.21Z"/><path class="cls-1" d="M6.6,4.64a.92.92,0,0,1,.46.11.63.63,0,0,1,.3.82l-1.13,3c0,.07-.07.15,0,.21s.15,0,.23,0a1.19,1.19,0,0,0,.29-.21l.57-.56s0-.08.1-.06,0,.07,0,.11a.72.72,0,0,1-.19.49A2.8,2.8,0,0,1,6,9.49,1.39,1.39,0,0,1,5,9.45a.59.59,0,0,1-.31-.78c.37-1,.75-2,1.12-3,0-.09.1-.2,0-.28s-.21,0-.29,0a9.33,9.33,0,0,0-.73.68s-.08.13-.14.1,0-.12,0-.19a.44.44,0,0,1,.13-.32,3.4,3.4,0,0,1,1.67-1A.86.86,0,0,1,6.6,4.64Z"/><path class="cls-1" d="M7.25,2.83a.77.77,0,0,1,.83.54A.6.6,0,0,1,7.84,4,1,1,0,0,1,6.66,4a.62.62,0,0,1,0-1A.84.84,0,0,1,7.25,2.83Z"/></svg>