<svg id="Layer_1" data-name="Layer 1" xmlns="http://www.w3.org/2000/svg" viewBox="0 0 15.03 14.38"><defs><style>.cls-1{fill:none;stroke:#fff;stroke-miterlimit:10;}</style></defs><title>Mondelez_Eropanel_Sprite</title><path class="cls-1" d="M14.31,6.09l-3.06,3L12,13.29v.17c0,.22-.1.42-.34.42a.67.67,0,0,1-.34-.1l-3.78-2-3.79,2a.7.7,0,0,1-.34.1c-.24,0-.35-.2-.35-.42,0-.06,0-.11,0-.17l.73-4.22-3.07-3a.65.65,0,0,1-.21-.4c0-.26.26-.36.47-.39L5.2,4.68,7.1.85C7.18.69,7.32.5,7.52.5s.33.19.41.35l1.9,3.83,4.23.62c.2,0,.47.13.47.39A.62.62,0,0,1,14.31,6.09Z"/></svg>