<svg id="Layer_1" data-name="Layer 1" xmlns="http://www.w3.org/2000/svg" viewBox="0 0 10.29 10.29"><defs><style>.cls-1{fill:#303030;}</style></defs><title>Mondelez_Eropanel_Sprite</title><path class="cls-1" d="M10.29,9.65a.64.64,0,0,1-.64.64h-9A.64.64,0,0,1,0,9.65v-9A.64.64,0,0,1,.64,0H6.86A1.78,1.78,0,0,1,8,.46L9.83,2.33a1.75,1.75,0,0,1,.46,1.1Zm-.86-.22v-6a1,1,0,0,0-.2-.49L7.35,1.06a.92.92,0,0,0-.49-.2V3.64a.65.65,0,0,1-.64.65H2.36a.65.65,0,0,1-.65-.65V.86H.86V9.43h.85V6.64A.65.65,0,0,1,2.36,6H7.93a.64.64,0,0,1,.64.64V9.43Zm-1.71,0V6.86H2.57V9.43ZM6,1.07A.22.22,0,0,0,5.79.86H4.5a.22.22,0,0,0-.21.21V3.21a.22.22,0,0,0,.21.22H5.79A.22.22,0,0,0,6,3.21Z"/></svg>