<svg id="Layer_1" data-name="Layer 1" xmlns="http://www.w3.org/2000/svg" viewBox="0 0 10.02 36.67"><defs><style>.cls-1{fill:#e18719;}</style></defs><title>Mondelez_Eropanel_Sprite</title><circle class="cls-1" cx="5.06" cy="2.11" r="2.11"/><path class="cls-1" d="M5.05,8.72a1,1,0,0,1-.38-.07,1,1,0,0,1-.32-.22.91.91,0,0,1-.22-.33,1,1,0,0,1,.54-1.3,1,1,0,0,1,.58-.06.7.7,0,0,1,.19.06.7.7,0,0,1,.17.09L5.76,7A1.19,1.19,0,0,1,6,7.34,1.07,1.07,0,0,1,6,8.1a1.06,1.06,0,0,1-.22.33,1.14,1.14,0,0,1-.32.22A1,1,0,0,1,5.05,8.72Z"/><path class="cls-1" d="M4.05,20.64a1,1,0,0,1,1-1h0a1,1,0,0,1,1,1h0a1,1,0,0,1-1,1h0A1,1,0,0,1,4.05,20.64Zm0-3.23a1,1,0,0,1,1-1h0a1,1,0,0,1,1,1h0a1,1,0,0,1-1,1h0A1,1,0,0,1,4.05,17.41Zm0-3.23a1,1,0,0,1,1-1h0a1,1,0,0,1,1,1h0a1,1,0,0,1-1,1h0A1,1,0,0,1,4.05,14.18Zm0-3.23a1,1,0,0,1,1-1h0a1,1,0,0,1,1,1h0a1,1,0,0,1-1,1h0A1,1,0,0,1,4.05,11Z"/><path class="cls-1" d="M5.05,24.87a1,1,0,0,1-.38-.07,1.19,1.19,0,0,1-.33-.22,1,1,0,0,1-.29-.71,1,1,0,0,1,.08-.38,1.15,1.15,0,0,1,.21-.33A1.15,1.15,0,0,1,4.67,23a1,1,0,0,1,.77,0,1,1,0,0,1,.32.21,1.19,1.19,0,0,1,.22.33,1,1,0,0,1-.22,1.09,1,1,0,0,1-.32.22A1,1,0,0,1,5.05,24.87Z"/><path class="cls-1" d="M10,32a.29.29,0,0,1-.1.23l-.5.51a.31.31,0,0,1-.46,0L5,28.77,1.06,32.72a.33.33,0,0,1-.23.1.37.37,0,0,1-.23-.1l-.5-.51A.29.29,0,0,1,0,32a.32.32,0,0,1,.1-.23l4.68-4.68A.3.3,0,0,1,5,27a.29.29,0,0,1,.23.1l4.68,4.68A.32.32,0,0,1,10,32Zm0,3.86a.3.3,0,0,1-.1.23l-.5.5a.31.31,0,0,1-.46,0l-4-4-3.95,4a.29.29,0,0,1-.23.1.32.32,0,0,1-.23-.1l-.5-.5a.3.3,0,0,1-.1-.23.29.29,0,0,1,.1-.23l4.68-4.68a.3.3,0,0,1,.23-.1.29.29,0,0,1,.23.1l4.68,4.68A.29.29,0,0,1,10,35.84Z"/></svg>