<svg id="Layer_1" data-name="Layer 1" xmlns="http://www.w3.org/2000/svg" viewBox="0 0 30 30"><defs><style>.cls-1{fill:#4f2170;}.cls-2{fill:#fff;}</style></defs><title>Mondelez_Eropanel_Sprite</title><circle class="cls-1" cx="15" cy="15" r="15"/><path class="cls-2" d="M16.76,21.12h4.91a1,1,0,0,0,1-1V8.86a1,1,0,0,0-1-1H16.76V6.5L7.31,7.76V21.21l9.45,1.29Zm.06-12.7h4.85a.44.44,0,0,1,.44.44V20.09a.44.44,0,0,1-.44.44H16.76V15.22a2.4,2.4,0,0,0,4.72-.61h-2.4V12.2A2.4,2.4,0,0,0,16.76,14V8.43Zm-3,6.39a3.26,3.26,0,0,1-2.35.78l-.55,0v2.62l-1.57,0V11a12.79,12.79,0,0,1,2.15-.21,3.43,3.43,0,0,1,2.21.54,2.15,2.15,0,0,1,.8,1.72A2.4,2.4,0,0,1,13.87,14.81ZM11.63,12a2.68,2.68,0,0,0-.66.07v2.17a2.58,2.58,0,0,0,.54,0c.86,0,1.4-.45,1.4-1.21S12.44,12,11.63,12Z"/><path class="cls-2" d="M19.41,14.23h2.4a2.41,2.41,0,0,0-.73-1.73Z"/><path class="cls-2" d="M19.38,13.8l1.7-1.7a2.34,2.34,0,0,0-1.7-.7v2.4Z"/></svg>