<svg id="Layer_1" data-name="Layer 1" xmlns="http://www.w3.org/2000/svg" viewBox="0 0 15.03 16.07"><defs><style>.cls-1,.cls-2{fill:#fff;}.cls-2{stroke:#fff;stroke-miterlimit:10;stroke-width:0.5px;}</style></defs><title>Mondelez_Eropanel_Sprite</title><path class="cls-1" d="M.38,16.07A.61.61,0,0,1,0,15.43C0,10.82,0,6.21,0,1.61a.5.5,0,0,1,.68-.53A.51.51,0,0,1,1,1.6V15.07H14.47a.51.51,0,0,1,.55.4.5.5,0,0,1-.33.57l0,0Z"/><path class="cls-1" d="M13,7.77l-.15.14L9.47,11.32c-.33.33-.57.33-.89,0L6.66,9.41l-.13-.15-.15.14L2.9,12.89A.5.5,0,0,1,2,12.7a.49.49,0,0,1,.15-.51l1.43-1.43L6.1,8.27a.52.52,0,0,1,.85,0l2,2,3.26-3.26h-.66a.53.53,0,0,1-.57-.5.51.51,0,0,1,.56-.51h2a.49.49,0,0,1,.49.5v2a.5.5,0,0,1-.49.52A.5.5,0,0,1,13,8.54V7.77Z"/><path class="cls-2" d="M8.15,5.27H7.39c0-.15,0-.3,0-.45A1.92,1.92,0,0,1,8,3.52l.42-.39c.13-.12.26-.25.38-.38a1,1,0,0,0,0-1.33,1.29,1.29,0,0,0-2-.09,1.83,1.83,0,0,0-.35.85v0l-.82-.1a2.63,2.63,0,0,1,.15-.63A1.85,1.85,0,0,1,7.47.27,2.55,2.55,0,0,1,8.78.43a1.74,1.74,0,0,1,1.1,1.35A1.5,1.5,0,0,1,9.55,3c-.19.23-.4.44-.61.65L8.55,4a1.16,1.16,0,0,0-.37.82Z"/><path class="cls-2" d="M8.25,6v.9H7.34V6Z"/></svg>