<svg id="Layer_1" data-name="Layer 1" xmlns="http://www.w3.org/2000/svg" viewBox="0 0 20.43 20.43"><defs><style>.cls-1{fill:#636363;}.cls-2{fill:#fcfcfc;}</style></defs><title>Mondelez_Eropanel_Sprite</title><circle class="cls-1" cx="10.21" cy="10.21" r="10.21"/><path class="cls-2" d="M10.21,9.58H5.89a1,1,0,0,1-.24,0,.4.4,0,0,1-.28-.38c0-.34,0-.69,0-1a.43.43,0,0,1,.45-.43h8.74a.62.62,0,0,1,.19,0,.39.39,0,0,1,.3.39v1a.41.41,0,0,1-.46.46H10.21Z"/><path class="cls-2" d="M10.2,12.72H5.85a.5.5,0,0,1-.33-.1.33.33,0,0,1-.14-.26c0-.38,0-.77,0-1.15a.39.39,0,0,1,.44-.36h8.74a.52.52,0,0,1,.34.09.38.38,0,0,1,.15.32v1a.4.4,0,0,1-.44.44H10.2Z"/></svg>