<svg id="Layer_1" data-name="Layer 1" xmlns="http://www.w3.org/2000/svg" viewBox="0 0 27.5 26.85"><defs><style>.cls-1{fill:#e18719;}</style></defs><title>Mondelez_Eropanel_Sprite</title><path class="cls-1" d="M18.56,13a1,1,0,0,1-.7-.29l-4.8-4.8-4.81,4.8a1,1,0,0,1-.7.29,1,1,0,0,1-.7-.29,1,1,0,0,1-.29-.7,1,1,0,0,1,.29-.7l4.8-4.81L6.85,1.7A1,1,0,0,1,6.56,1a1,1,0,0,1,1-1,1,1,0,0,1,.7.29L13.06,5.1,17.86.29a1,1,0,0,1,1.41,0,1,1,0,0,1,.29.7,1,1,0,0,1-.29.71L14.46,6.5l4.81,4.81a1,1,0,0,1,.29.7,1,1,0,0,1-.29.7A1,1,0,0,1,18.56,13Z"/><rect class="cls-1" y="24.52" width="27.5" height="2.34"/></svg>