<svg id="Layer_1" data-name="Layer 1" xmlns="http://www.w3.org/2000/svg" viewBox="0 0 14.45 18.64"><defs><style>.cls-1,.cls-2{fill:#4f2170;}.cls-2{fill-rule:evenodd;}</style></defs><title>Mondelez_Eropanel_Sprite</title><polygon class="cls-1" points="14.45 18.64 0 18.64 0 3.24 0.83 3.24 0.83 17.82 13.62 17.82 13.62 0.83 3.18 0.83 3.18 0 14.45 0 14.45 18.64"/><polygon class="cls-2" points="0.16 3.25 3.18 3.25 3.18 0.17 0.16 3.25 0.16 3.25"/><path class="cls-2" d="M6.08,10H8a1.79,1.79,0,0,0,1.3-.41,1.61,1.61,0,0,0,.42-1.22,1.81,1.81,0,0,0-.21-.9A1.18,1.18,0,0,0,9,6.91a2.71,2.71,0,0,0-1-.14H6.08V10Zm-1,4.66V5.72H7.87a4.57,4.57,0,0,1,1.43.17,2,2,0,0,1,1,.86,3,3,0,0,1,.37,1.54,3,3,0,0,1-.61,2A2.61,2.61,0,0,1,8,11H6.08v3.61Z"/></svg>