<svg xmlns="http://www.w3.org/2000/svg" viewBox="0 0 49.47 46.77"><defs><style>.cls-1{isolation:isolate;}.cls-2{fill:#4f2170;}.cls-3{opacity:0.3;mix-blend-mode:multiply;}.cls-4,.cls-7{fill:#fff;}.cls-5{fill:none;stroke:#2b2b2b;stroke-width:0.75px;fill-rule:evenodd;}.cls-5,.cls-7{stroke-miterlimit:10;}.cls-6{fill:#2b2b2b;}.cls-7{stroke:#686872;}</style></defs><title>Mondelez_Eropanel_Sprite</title><g class="cls-1"><g id="Layer_1" data-name="Layer 1"><circle class="cls-2" cx="24.73" cy="21.35" r="21.35"/><g class="cls-3"><path d="M24.73.75a20.6,20.6,0,1,1-20.6,20.6A20.63,20.63,0,0,1,24.73.75m0-.75A21.35,21.35,0,1,0,46.09,21.35,21.35,21.35,0,0,0,24.73,0Z"/></g><path class="cls-4" d="M38.68,32.35a.57.57,0,0,0,0-1.14H37.1V24a.53.53,0,0,0-.5-.57H33.14a.54.54,0,0,0-.5.57v7.25H30.18V16.14a.54.54,0,0,0-.5-.57H26.22a.53.53,0,0,0-.5.57V31.21H23.25V20.05a.53.53,0,0,0-.5-.57H19.29a.54.54,0,0,0-.5.57V31.21H16.33V10.92a.55.55,0,0,0-.5-.57H12.37a.54.54,0,0,0-.5.57V31.21H10.29a.57.57,0,0,0,0,1.14Z"/><rect class="cls-4" x="19.79" y="20.62" width="2.47" height="10.59"/><rect class="cls-4" x="26.71" y="16.71" width="2.47" height="14.5"/><rect class="cls-4" x="33.64" y="24.53" width="2.47" height="6.68"/><rect class="cls-4" x="12.86" y="11.5" width="2.47" height="19.71"/><path class="cls-5" d="M.38,20.48a24.36,24.36,0,1,0,48.71,0"/><rect class="cls-6" x="22.19" y="43.72" width="5.1" height="3.05"/><circle class="cls-7" cx="41.76" cy="9.08" r="2.62"/></g></g></svg>