<svg id="Layer_1" data-name="Layer 1" xmlns="http://www.w3.org/2000/svg" viewBox="0 0 12.32 12.33"><defs><style>.cls-1{fill:#fff;}.cls-2{fill:none;stroke:#fff;stroke-miterlimit:10;stroke-width:0.72px;}</style></defs><title>Mondelez_Eropanel_Sprite</title><path class="cls-1" d="M.31,12.33A.51.51,0,0,1,0,11.8V.47A.42.42,0,0,1,.56,0,.41.41,0,0,1,.82.46c0,.89,0,1.77,0,2.66v8.39h11a.41.41,0,0,1,.45.33.41.41,0,0,1-.27.46l0,0Z"/><path class="cls-2" d="M1.79,9.63A5.81,5.81,0,0,0,3.9,1.72"/><polygon class="cls-1" points="5.97 2.28 5.81 2.67 3.94 1.88 3.29 3.81 2.9 3.68 3.69 1.32 5.97 2.28"/><path class="cls-2" d="M4,11.12a5.79,5.79,0,0,1,6.91-4.38"/><polygon class="cls-1" points="9.34 8.28 9.1 7.95 10.75 6.75 9.43 5.19 9.75 4.93 11.35 6.82 9.34 8.28"/></svg>