<svg id="Layer_1" data-name="Layer 1" xmlns="http://www.w3.org/2000/svg" viewBox="0 0 14.44 18.64"><defs><style>.cls-1,.cls-2{fill:#fff;}.cls-2{fill-rule:evenodd;}</style></defs><title>Mondelez_Eropanel_Sprite</title><polygon class="cls-1" points="14.44 18.64 0 18.64 0 3.23 0.8 3.23 0.8 17.85 13.65 17.85 13.65 0.8 3.17 0.8 3.17 0 14.44 0 14.44 18.64"/><polygon class="cls-2" points="0.14 3.24 3.17 3.24 3.17 0.15 0.14 3.24 0.14 3.24"/><path class="cls-2" d="M3.86,14.64,6.7,10,4.2,5.72H5.35L6.69,8c.27.47.46.84.58,1.1a9.13,9.13,0,0,1,.58-1L9.33,5.72h1L7.8,9.91l2.77,4.73H9.38L7.53,11.46c-.1-.18-.21-.38-.31-.6-.17.32-.29.55-.36.67L5,14.64Z"/><path class="cls-1" d="M9.6,14.24h.28L7.34,9.91,9.66,6.12H9.54L8.18,8.3a10.36,10.36,0,0,0-.56,1L7.26,10l.32.68c.1.21.19.4.29.57Zm-5,0H4.8l1.72-2.92c.07-.12.18-.33.34-.64L7.21,10,6.9,9.26A8.22,8.22,0,0,0,6.34,8.2L5.12,6.12H4.89L7.16,10Z"/></svg>