<svg id="Layer_1" data-name="Layer 1" xmlns="http://www.w3.org/2000/svg" viewBox="0 0 12 12"><defs><style>.cls-1{fill:gray;}</style></defs><title>Mondelez_Eropanel_Sprite</title><path class="cls-1" d="M11.48,0H7.73a.52.52,0,0,0-.52.52A.52.52,0,0,0,7.73,1H11V4.27a.52.52,0,0,0,1,0V.52A.52.52,0,0,0,11.48,0Z"/><path class="cls-1" d="M11.85.15a.53.53,0,0,0-.74,0l-7.4,7.4a.53.53,0,0,0,0,.74.55.55,0,0,0,.37.15.53.53,0,0,0,.37-.15l7.4-7.4A.53.53,0,0,0,11.85.15Z"/><path class="cls-1" d="M11.48,7.44A.52.52,0,0,0,11,8v3H1V1H4A.52.52,0,0,0,4.56.52.52.52,0,0,0,4,0H.52A.52.52,0,0,0,0,.52v11A.52.52,0,0,0,.52,12h11a.52.52,0,0,0,.52-.52V8A.52.52,0,0,0,11.48,7.44Z"/></svg>