<svg id="Layer_1" data-name="Layer 1" xmlns="http://www.w3.org/2000/svg" viewBox="0 0 15.18 11.36"><defs><style>.cls-1{fill:#4f2170;}</style></defs><title>Mondelez_Eropanel_Sprite</title><path class="cls-1" d="M14.92,11.36a.28.28,0,0,0,.26-.29.28.28,0,0,0-.26-.3H14.1V7a.27.27,0,0,0-.25-.3H12.06a.28.28,0,0,0-.26.3v3.74H10.53V3a.28.28,0,0,0-.26-.3H8.48a.28.28,0,0,0-.26.3v7.78H7V5a.28.28,0,0,0-.26-.3H4.91a.28.28,0,0,0-.26.3v5.76H3.37V.3A.27.27,0,0,0,3.12,0H1.33a.28.28,0,0,0-.26.3V10.77H.26a.28.28,0,0,0-.26.3.28.28,0,0,0,.26.29Z"/><rect class="cls-1" x="5.16" y="5.3" width="1.27" height="5.47"/><rect class="cls-1" x="8.74" y="3.28" width="1.27" height="7.49"/><rect class="cls-1" x="12.31" y="7.32" width="1.27" height="3.45"/><rect class="cls-1" x="1.59" y="0.59" width="1.27" height="10.18"/></svg>