<svg id="Layer_1" data-name="Layer 1" xmlns="http://www.w3.org/2000/svg" viewBox="0 0 13.4 12.89"><defs><style>.cls-1{fill:#fff;}.cls-2{fill:none;stroke:#fff;stroke-miterlimit:10;stroke-width:0.3px;}</style></defs><title>Mondelez_Eropanel_Sprite</title><path class="cls-1" d="M2.39,6.16a4.1,4.1,0,0,1-.78-.06c-.21,0-.24,0-.19.19a7.44,7.44,0,0,0,2.86,4.35,8.11,8.11,0,0,0,1.33.78.22.22,0,0,0,.32-.07A14.76,14.76,0,0,0,8,8a.91.91,0,0,1,.07-.14c0-.06.09-.07.15,0l.67.67c.08.07,0,.14,0,.21a14.42,14.42,0,0,1-1.34,2.32A17.81,17.81,0,0,1,6.4,12.51a.56.56,0,0,1-.72.17A8.43,8.43,0,0,1,.25,6.16c0-.22-.07-.44-.1-.67a.57.57,0,0,1,.76-.64,5,5,0,0,0,3.69-.4c.11,0,.17,0,.25,0s.38.39.58.57.08.16,0,.23a5.68,5.68,0,0,1-2.13.8A5.22,5.22,0,0,1,2.39,6.16Z"/><path class="cls-2" d="M2.39,6.16a4.1,4.1,0,0,1-.78-.06c-.21,0-.24,0-.19.19a7.44,7.44,0,0,0,2.86,4.35,8.11,8.11,0,0,0,1.33.78.22.22,0,0,0,.32-.07A14.76,14.76,0,0,0,8,8a.91.91,0,0,1,.07-.14c0-.06.09-.07.15,0l.67.67c.08.07,0,.14,0,.21a14.42,14.42,0,0,1-1.34,2.32A17.81,17.81,0,0,1,6.4,12.51a.56.56,0,0,1-.72.17A8.43,8.43,0,0,1,.25,6.16c0-.22-.07-.44-.1-.67a.57.57,0,0,1,.76-.64,5,5,0,0,0,3.69-.4c.11,0,.17,0,.25,0s.38.39.58.57.08.16,0,.23a5.68,5.68,0,0,1-2.13.8A5.22,5.22,0,0,1,2.39,6.16Z"/><path class="cls-1" d="M7.34,3.1a1.45,1.45,0,0,1,1.07.41c.22.22.22.22.44,0L12,.4a.75.75,0,0,1,1.16.06.74.74,0,0,1-.09,1c-.46.47-.92.92-1.38,1.38L9.8,4.65c-.1.1-.1.15,0,.26A1.33,1.33,0,0,1,10,6.49l-.48,1c0,.11-.09.13-.19,0l-2-2L5.8,4c-.1-.1-.11-.14,0-.21l1-.51A1.2,1.2,0,0,1,7.34,3.1Z"/><path class="cls-2" d="M7.34,3.1a1.45,1.45,0,0,1,1.07.41c.22.22.22.22.44,0L12,.4a.75.75,0,0,1,1.16.06.74.74,0,0,1-.09,1c-.46.47-.92.92-1.38,1.38L9.8,4.65c-.1.1-.1.15,0,.26A1.33,1.33,0,0,1,10,6.49l-.48,1c0,.11-.09.13-.19,0l-2-2L5.8,4c-.1-.1-.11-.14,0-.21l1-.51A1.2,1.2,0,0,1,7.34,3.1Z"/></svg>