<svg id="Layer_1" data-name="Layer 1" xmlns="http://www.w3.org/2000/svg" viewBox="0 0 14.86 15.98"><defs><style>.cls-1{fill:#fff;}</style></defs><title>Mondelez_Eropanel_Sprite</title><rect class="cls-1" x="6.22" y="8.83" width="7.14" height="0.79" transform="translate(0.21 18.67) rotate(-87.91)"/><rect class="cls-1" x="7.04" y="5.66" width="0.79" height="7.14"/><rect class="cls-1" x="4.68" y="5.66" width="0.79" height="7.14" transform="translate(-0.34 0.19) rotate(-2.12)"/><path class="cls-1" d="M2.81,16a.39.39,0,0,1-.4-.36L1.32,3.27H0v-.8H14.86v.8H13.52L12.43,15.62A.39.39,0,0,1,12,16Zm.36-.79h8.5L12.72,3.27H2.12Z"/><path class="cls-1" d="M9.58,2.62V.79H5.29V2.62H4.5V.83A.83.83,0,0,1,5.32,0H9.54a.83.83,0,0,1,.83.83V2.62Z"/></svg>