<svg id="Layer_1" data-name="Layer 1" xmlns="http://www.w3.org/2000/svg" viewBox="0 0 12.92 12.92"><defs><style>.cls-1{fill:#fff;}</style></defs><title>Mondelez_Eropanel_Sprite</title><path class="cls-1" d="M6.46,12.92a6.46,6.46,0,1,1,6.46-6.46A6.47,6.47,0,0,1,6.46,12.92Zm0-11.42a5,5,0,1,0,5,5A5,5,0,0,0,6.46,1.5Z"/><path class="cls-1" d="M8.32,9.23A.75.75,0,0,1,7.77,9L4,4.88A.76.76,0,0,1,4,3.82a.75.75,0,0,1,1.06.05L8.88,8A.75.75,0,0,1,8.83,9,.74.74,0,0,1,8.32,9.23Z"/><path class="cls-1" d="M4.54,9.23A.77.77,0,0,1,4,9,.76.76,0,0,1,4,8L7.77,3.87a.75.75,0,0,1,1.11,1L5.09,9A.74.74,0,0,1,4.54,9.23Z"/></svg>