<svg id="Layer_1" data-name="Layer 1" xmlns="http://www.w3.org/2000/svg" viewBox="0 0 10.02 9.7"><defs><style>.cls-1{fill:#969696;}</style></defs><title>Mondelez_Eropanel_Sprite</title><path class="cls-1" d="M10,.83a.29.29,0,0,1-.1.23L5.24,5.75a.33.33,0,0,1-.23.1.34.34,0,0,1-.23-.1L.1,1.06A.29.29,0,0,1,0,.83.32.32,0,0,1,.1.6L.6.1A.32.32,0,0,1,.83,0a.29.29,0,0,1,.23.1l4,4L9,.1a.31.31,0,0,1,.46,0l.5.5A.32.32,0,0,1,10,.83Zm0,3.86a.3.3,0,0,1-.1.23L5.24,9.6A.29.29,0,0,1,5,9.7a.3.3,0,0,1-.23-.1L.1,4.92a.31.31,0,0,1,0-.46L.6,4a.32.32,0,0,1,.23-.1.29.29,0,0,1,.23.1l4,4L9,4a.31.31,0,0,1,.46,0l.5.5A.3.3,0,0,1,10,4.69Z"/></svg>