<svg id="Layer_1" data-name="Layer 1" xmlns="http://www.w3.org/2000/svg" viewBox="0 0 10.88 10.42"><defs><style>.cls-1{fill:none;stroke:#fff;stroke-miterlimit:10;stroke-width:0.72px;}</style></defs><title>Mondelez_Eropanel_Sprite</title><path class="cls-1" d="M10.36,4.41,8.15,6.58l.52,3.05a.49.49,0,0,1,0,.12c0,.16-.08.31-.25.31A.55.55,0,0,1,8.18,10L5.44,8.54,2.7,10a.55.55,0,0,1-.24.07c-.18,0-.26-.15-.26-.31s0-.08,0-.12l.53-3.05L.51,4.41a.48.48,0,0,1-.15-.29c0-.18.19-.26.34-.28l3.07-.45L5.14.61C5.2.5,5.3.36,5.44.36s.25.14.3.25L7.11,3.39l3.07.45c.15,0,.34.1.34.28A.45.45,0,0,1,10.36,4.41Z"/></svg>