<svg xmlns="http://www.w3.org/2000/svg" viewBox="0 0 49.47 46.77"><defs><style>.cls-1{isolation:isolate;}.cls-2,.cls-4{opacity:0.3;}.cls-3{fill:#aaa;}.cls-4{mix-blend-mode:multiply;}.cls-5,.cls-9{fill:#fff;}.cls-5,.cls-6{stroke:#fff;}.cls-5,.cls-6,.cls-7,.cls-9{stroke-miterlimit:10;}.cls-6,.cls-7{fill:none;}.cls-7{stroke:#2b2b2b;stroke-width:0.75px;fill-rule:evenodd;}.cls-8{fill:#2b2b2b;}.cls-9{stroke:#686872;}</style></defs><title>Mondelez_Eropanel_Sprite</title><g class="cls-1"><g id="Layer_1" data-name="Layer 1"><g class="cls-2"><g class="cls-2"><circle class="cls-3" cx="24.73" cy="21.35" r="21.35"/><g class="cls-4"><path d="M24.73.75a20.6,20.6,0,1,1-20.6,20.6A20.63,20.63,0,0,1,24.73.75m0-.75A21.35,21.35,0,1,0,46.09,21.35,21.35,21.35,0,0,0,24.73,0Z"/></g></g><path class="cls-5" d="M23.38,18.8l-.15.08a9,9,0,0,1-2.27.93,2.4,2.4,0,0,1-1.22,0A2.51,2.51,0,0,1,18,17.56a1.58,1.58,0,0,1,1-1.53,4.9,4.9,0,0,0,.79-.48,10.5,10.5,0,0,0,2.3-2.67,1.11,1.11,0,0,1,.72-.52,4.5,4.5,0,0,1,1-.15c.35,0,.35,0,.35-.36V10.12c0-.4.09-.47.47-.36a5.22,5.22,0,0,1,3.62,3.06.51.51,0,0,0,.23.25,6.54,6.54,0,0,1,3.1,4,8.27,8.27,0,0,1,0,4.22A15.88,15.88,0,0,1,30,25.41c-.09.16-.1.24.09.33a1.6,1.6,0,0,1,.22,2.77c-.15.1-.17.15,0,.29A6,6,0,0,1,32,31.65a1,1,0,0,1-1,1.34H18.55a1,1,0,0,1-1-1.35,6.12,6.12,0,0,1,1.66-2.84c.09-.09.19-.14,0-.28a1.6,1.6,0,0,1,.32-2.84.26.26,0,0,0,.18-.25,7.7,7.7,0,0,1,2.72-5.28,6.23,6.23,0,0,0,.55-.49,2.34,2.34,0,0,0,.49-.85S23.39,18.79,23.38,18.8Zm5.81,6.76a.38.38,0,0,0,.39-.23,15.41,15.41,0,0,0,1.76-4.54,7.36,7.36,0,0,0-.24-4.13,6.13,6.13,0,0,0-2.74-3.23.8.8,0,0,1-.37-.38,4.73,4.73,0,0,0-3-2.79c-.25-.09-.27-.08-.27.19,0,.54,0,1.09,0,1.63s0,.54-.52.54a5.55,5.55,0,0,0-1.15.13.74.74,0,0,0-.5.36,11.94,11.94,0,0,1-2.14,2.56,5.46,5.46,0,0,1-1.11.73,1.29,1.29,0,0,0-.81.93.53.53,0,0,0,0,.25,2.84,2.84,0,0,0,.55,1.3,1.58,1.58,0,0,0,1.68.57,7.82,7.82,0,0,0,2.79-1.22c.11-.07.21-.19.36-.1s.12.25.11.39a2.61,2.61,0,0,1-1,1.73,7.73,7.73,0,0,0-2.3,3,7.91,7.91,0,0,0-.54,2c0,.22.07.25.25.25h8.84Zm.06,2.84a1.29,1.29,0,0,0,.85-.25,1.2,1.2,0,0,0,.43-1.33A1.26,1.26,0,0,0,29.36,26H20.24a1.36,1.36,0,0,0-.89.27,1.19,1.19,0,0,0-.4,1.34,1.25,1.25,0,0,0,1.21.82c1.53,0,3.05,0,4.58,0S27.75,28.41,29.25,28.4ZM31,32.56c.37,0,.53-.11.62-.39a.53.53,0,0,0,0-.28A5.83,5.83,0,0,0,29.91,29a.59.59,0,0,0-.44-.18q-4.74,0-9.48,0a.54.54,0,0,0-.4.15,5.78,5.78,0,0,0-1.71,3,.51.51,0,0,0,.48.63H31Z"/><path class="cls-6" d="M30.22,19a4.59,4.59,0,0,0-2.09-4,2.11,2.11,0,0,0-.33-.18.19.19,0,0,0-.25.08.19.19,0,0,0,.05.25.83.83,0,0,0,.15.11,4.23,4.23,0,0,1,2,4.27A7.61,7.61,0,0,1,29,22.16c-.07.16-.23.36,0,.47s.29-.14.36-.29A7.59,7.59,0,0,0,30.22,19Z"/><path class="cls-7" d="M.38,20.48a24.36,24.36,0,1,0,48.71,0"/><rect class="cls-8" x="22.19" y="43.72" width="5.1" height="3.05"/><circle class="cls-9" cx="41.76" cy="9.08" r="2.62"/></g></g></g></svg>